<svg width="225" height="47" viewBox="0 0 225 47" fill="none" xmlns="http://www.w3.org/2000/svg">
<path d="M16.2995 26.1302C15.8923 24.4776 15.4636 22.825 15.0135 21.1724C14.5635 19.5198 14.1133 17.8401 13.6633 16.1333H7.8443C7.13702 18.9779 6.46191 21.8632 5.81893 24.7892C5.7332 25.2226 5.6689 25.6019 5.62603 25.927C5.58317 26.2521 5.56174 26.5231 5.56174 26.7398C5.56174 27.1462 5.62605 27.3494 5.75464 27.3494H8.06936C8.19795 27.3494 8.28368 27.4306 8.32655 27.5932C8.39085 27.7286 8.42297 27.8641 8.42297 27.9996C8.42297 28.1079 8.39085 28.2569 8.32655 28.4466C8.28368 28.6091 8.17653 28.6904 8.00507 28.6904C7.66215 28.6904 7.23347 28.6904 6.71908 28.6904C6.2047 28.6633 5.69032 28.6498 5.17594 28.6498C4.66156 28.6498 4.22221 28.6498 3.85786 28.6498C3.23631 28.6498 2.63617 28.6633 2.05749 28.6904C1.47881 28.7446 0.889433 28.7717 0.28932 28.7717C0.0964264 28.7717 0 28.5414 0 28.0808C0 27.6203 0.0964264 27.39 0.28932 27.39H1.89678C2.3683 27.39 2.72192 27.092 2.95768 26.496C3.57922 24.8163 4.13648 23.1636 4.62943 21.5381C5.12238 19.9126 5.6153 18.2194 6.10825 16.4584C6.6012 14.6974 7.12631 12.8281 7.68356 10.8503C8.26224 8.87262 8.92665 6.70526 9.67679 4.34826C9.74109 4.13153 9.80539 3.92834 9.86969 3.73869C9.93399 3.52196 9.96614 3.33231 9.96614 3.16976C9.96614 2.92593 9.92326 2.72274 9.83753 2.56019C9.7518 2.39764 9.70892 2.26218 9.70892 2.15381C9.70892 1.93708 9.81611 1.82871 10.0304 1.82871C10.4805 1.82871 10.8234 1.73388 11.0592 1.54424C11.295 1.3546 11.4664 1.15141 11.5736 0.934673C11.6807 0.690845 11.7772 0.474109 11.8629 0.284465C11.9487 0.0948216 12.0665 0 12.2165 0C12.3023 0 12.3773 0.13546 12.4416 0.40638C12.5059 0.650208 12.5809 0.921127 12.6667 1.21914L19.1286 23.2856C19.6001 24.8569 19.9644 25.927 20.2216 26.496C20.4788 27.0649 20.6824 27.3494 20.8325 27.3494H21.9898C22.2042 27.3494 22.3113 27.5525 22.3113 27.9589C22.3113 28.1486 22.2899 28.3247 22.247 28.4872C22.2256 28.6227 22.1613 28.6904 22.0541 28.6904C21.2183 28.6904 20.4681 28.6904 19.8037 28.6904C19.1607 28.6633 18.5499 28.6498 17.9712 28.6498C17.414 28.6498 16.7496 28.6633 15.978 28.6904C15.2278 28.7446 14.5313 28.7717 13.8883 28.7717C13.6954 28.7717 13.599 28.5279 13.599 28.0402C13.599 27.6067 13.6954 27.39 13.8883 27.39H15.7208C16.3209 27.39 16.5138 26.9701 16.2995 26.1302ZM10.7699 5.5674C10.3198 7.05746 9.89111 8.54752 9.48389 10.0376C9.07667 11.5005 8.66948 12.9906 8.26226 14.5078H13.2132C12.8488 13.0719 12.463 11.6225 12.0558 10.1595C11.67 8.66943 11.2842 7.13874 10.8985 5.5674H10.7699Z" fill="#686868"/>
<path d="M50.9563 27.0649H52.8209C54.2997 27.0649 55.6929 26.9159 57.0003 26.6179C58.3077 26.3199 59.2721 25.8999 59.8937 25.3581L60.1187 23.123C60.1401 23.0146 60.2044 22.9334 60.3116 22.8792C60.4402 22.825 60.5795 22.7979 60.7295 22.7979C61.051 22.7979 61.201 22.9063 61.1796 23.123C61.0724 24.1254 60.9974 25.1955 60.9546 26.3334C60.9117 27.4713 60.8903 28.5549 60.8903 29.5844C60.8903 29.7741 60.7295 29.8689 60.408 29.8689C60.2794 29.8689 60.1616 29.8418 60.0544 29.7876C59.9473 29.7605 59.8937 29.6928 59.8937 29.5844V28.6904H49.4453C48.5451 28.6904 47.8271 28.6904 47.2913 28.6904C46.7555 28.7175 46.3161 28.731 45.9732 28.731C45.6302 28.7581 45.2873 28.7717 44.9444 28.7717C44.8587 28.7717 44.7944 28.7039 44.7515 28.5685C44.7087 28.433 44.6872 28.284 44.6872 28.1215C44.6872 27.9318 44.7087 27.7693 44.7515 27.6338C44.7944 27.4713 44.8587 27.39 44.9444 27.39H46.3268C46.8841 27.39 47.2377 27.2545 47.3877 26.9836C47.5592 26.7127 47.6449 26.225 47.6449 25.5206V6.25825C47.6449 5.20166 47.602 4.42954 47.5163 3.94188C47.452 3.42713 47.3663 3.08849 47.2591 2.92594C47.1734 2.76338 47.0769 2.6821 46.9698 2.6821H45.1051C44.9337 2.6821 44.848 2.42473 44.848 1.90998C44.848 1.77452 44.8587 1.65261 44.8801 1.54424C44.923 1.40878 44.998 1.34105 45.1051 1.34105C45.791 1.34105 46.4769 1.3546 47.1627 1.38169C47.8485 1.38169 48.5129 1.38169 49.1559 1.38169C50.0775 1.38169 50.7955 1.38169 51.3099 1.38169C51.8457 1.3546 52.2851 1.32751 52.628 1.30042C52.9709 1.27332 53.3138 1.25978 53.6568 1.25978C53.7639 1.25978 53.8283 1.32751 53.8497 1.46297C53.8926 1.59843 53.914 1.74743 53.914 1.90998C53.914 2.09963 53.8926 2.27573 53.8497 2.43828C53.8068 2.57374 53.7425 2.64147 53.6568 2.64147H52.2744C51.7385 2.64147 51.3849 2.77693 51.2134 3.04785C51.042 3.31877 50.9563 3.80642 50.9563 4.51082V27.0649Z" fill="#686868"/>
<path d="M90.3575 23.7732C90.3575 24.8027 90.3897 25.5748 90.454 26.0896C90.5397 26.6043 90.6362 26.943 90.7433 27.1055C90.8505 27.2681 90.9469 27.3494 91.0326 27.3494H92.8973C93.0045 27.3494 93.0795 27.4306 93.1223 27.5932C93.1866 27.7557 93.2187 27.9318 93.2187 28.1215C93.2187 28.5008 93.1116 28.6904 92.8973 28.6904H91.5149C91.3005 28.6904 91.0755 28.6904 90.8397 28.6904C90.604 28.6633 90.3683 28.6498 90.1325 28.6498H88.8465C87.9464 28.6498 87.2284 28.6633 86.6926 28.6904C86.1567 28.6904 85.7173 28.704 85.3744 28.731C85.0315 28.7581 84.6886 28.7717 84.3457 28.7717C84.2599 28.7717 84.1956 28.7039 84.1527 28.5685C84.1099 28.433 84.0885 28.284 84.0885 28.1215C84.0885 27.9318 84.1099 27.7693 84.1527 27.6338C84.1956 27.4713 84.2599 27.39 84.3457 27.39H85.7281C86.2853 27.39 86.639 27.2545 86.789 26.9836C86.9605 26.7127 87.0462 26.225 87.0462 25.5206V6.25825C87.0462 5.20166 87.0033 4.42954 86.9176 3.94188C86.8533 3.42713 86.7676 3.08849 86.6604 2.92594C86.5747 2.76338 86.4782 2.6821 86.371 2.6821H84.5064C84.3349 2.6821 84.2492 2.42473 84.2492 1.90998C84.2492 1.77452 84.2599 1.65261 84.2814 1.54424C84.3242 1.40878 84.3992 1.34105 84.5064 1.34105C85.3851 1.34105 86.1567 1.3546 86.8211 1.38169C87.507 1.40878 88.0857 1.42233 88.5572 1.42233H92.2543C94.269 1.42233 95.8979 1.76098 97.1409 2.43828C98.384 3.11558 99.2949 4.00961 99.8736 5.12038C100.474 6.20406 100.774 7.35547 100.774 8.57461C100.774 9.82084 100.484 11.0264 99.9057 12.1914C99.3484 13.3563 98.5448 14.3181 97.4946 15.0767C96.4658 15.8353 95.2335 16.2145 93.7975 16.2145C93.2831 16.2145 92.7366 16.1468 92.1579 16.0114C91.5792 15.8488 90.9791 15.5914 90.3575 15.2392V23.7732ZM97.3017 8.89972C97.3017 7.9244 97.0981 6.98973 96.6909 6.09569C96.2837 5.20166 95.6514 4.47018 94.7941 3.90124C93.9368 3.33231 92.8437 3.04785 91.5149 3.04785C91.1076 3.04785 90.8076 3.18331 90.6147 3.45423C90.4432 3.69805 90.3575 4.18571 90.3575 4.91719V13.9388C90.9362 14.1014 91.5041 14.1827 92.0614 14.1827C93.2188 14.1827 94.1832 13.9388 94.9548 13.4512C95.7264 12.9364 96.3051 12.2862 96.6909 11.5005C97.0981 10.6878 97.3017 9.82084 97.3017 8.89972Z" fill="#686868"/>
<path d="M130.387 23.7732C130.387 24.8027 130.419 25.5748 130.483 26.0896C130.569 26.6043 130.665 26.943 130.772 27.1055C130.88 27.2681 130.976 27.3494 131.062 27.3494H132.927C133.098 27.3494 133.184 27.6067 133.184 28.1215C133.184 28.2298 133.162 28.3518 133.119 28.4872C133.098 28.6227 133.034 28.6904 132.927 28.6904C132.262 28.6904 131.576 28.6904 130.869 28.6904C130.183 28.6633 129.519 28.6498 128.876 28.6498C127.975 28.6498 127.258 28.6633 126.722 28.6904C126.186 28.6904 125.746 28.704 125.404 28.731C125.061 28.7581 124.718 28.7717 124.375 28.7717C124.289 28.7717 124.225 28.7039 124.182 28.5685C124.139 28.433 124.118 28.284 124.118 28.1215C124.118 27.9318 124.139 27.7693 124.182 27.6338C124.225 27.4713 124.289 27.39 124.375 27.39H125.757C126.314 27.39 126.668 27.2545 126.818 26.9836C126.99 26.7127 127.075 26.225 127.075 25.5206V6.25825C127.075 5.20166 127.032 4.42954 126.947 3.94188C126.882 3.42713 126.797 3.08849 126.69 2.92594C126.604 2.76338 126.507 2.6821 126.4 2.6821H124.536C124.364 2.6821 124.278 2.42473 124.278 1.90998C124.278 1.77452 124.289 1.65261 124.311 1.54424C124.353 1.40878 124.428 1.34105 124.536 1.34105C125.221 1.34105 125.907 1.3546 126.593 1.38169C127.279 1.38169 127.943 1.38169 128.586 1.38169C129.508 1.38169 130.226 1.38169 130.74 1.38169C131.276 1.3546 131.716 1.32751 132.058 1.30042C132.401 1.27332 132.744 1.25978 133.087 1.25978C133.194 1.25978 133.259 1.32751 133.28 1.46297C133.323 1.59843 133.344 1.74743 133.344 1.90998C133.344 2.09963 133.323 2.27573 133.28 2.43828C133.237 2.57374 133.173 2.64147 133.087 2.64147H131.705C131.169 2.64147 130.815 2.77693 130.644 3.04785C130.472 3.31877 130.387 3.80642 130.387 4.51082V23.7732Z" fill="#686868"/>
<path d="M176.463 29.1781C176.463 29.1781 176.228 28.8259 175.756 28.1215C175.285 27.4171 174.642 26.4553 173.827 25.2362C173.034 24.017 172.123 22.6353 171.094 21.0911C170.066 19.5469 168.994 17.9349 167.88 16.2552C166.787 14.5755 165.704 12.9229 164.633 11.2974C163.561 9.67184 162.575 8.16823 161.675 6.78654H161.546C161.589 10.6878 161.621 14.1149 161.643 17.0679C161.664 20.021 161.696 22.4593 161.739 24.3828C161.761 25.0872 161.825 25.7645 161.932 26.4147C162.039 27.0378 162.2 27.3494 162.414 27.3494H164.182C164.29 27.3494 164.365 27.4306 164.407 27.5932C164.45 27.7286 164.472 27.8912 164.472 28.0808C164.472 28.4872 164.375 28.6904 164.182 28.6904C163.389 28.6904 162.736 28.6904 162.221 28.6904C161.707 28.6633 161.225 28.6498 160.775 28.6498C160.046 28.6498 159.339 28.6633 158.653 28.6904C157.967 28.7446 157.399 28.7717 156.949 28.7717C156.863 28.7717 156.799 28.7039 156.756 28.5685C156.735 28.4059 156.724 28.2434 156.724 28.0808C156.724 27.9183 156.735 27.7693 156.756 27.6338C156.799 27.4713 156.863 27.39 156.949 27.39H158.01C158.481 27.39 158.824 27.3223 159.039 27.1868C159.274 27.0243 159.403 26.7262 159.424 26.2928C159.532 24.9111 159.617 23.2991 159.682 21.4568C159.767 19.6146 159.832 17.6775 159.875 15.6456C159.939 13.6137 159.982 11.636 160.003 9.71247C160.046 7.76185 160.067 6.00087 160.067 4.42954L159.842 4.10444C159.585 3.69806 159.339 3.40004 159.103 3.2104C158.889 2.99366 158.61 2.84466 158.267 2.76338C157.946 2.68211 157.474 2.64147 156.853 2.64147C156.788 2.64147 156.735 2.58729 156.692 2.47892C156.67 2.34346 156.66 2.208 156.66 2.07254C156.66 1.90998 156.67 1.74743 156.692 1.58488C156.735 1.42233 156.788 1.34105 156.853 1.34105C157.131 1.34105 157.517 1.3546 158.01 1.38169C158.524 1.38169 159.071 1.38169 159.649 1.38169C160.25 1.38169 160.818 1.39524 161.353 1.42233C161.889 1.42233 162.329 1.42233 162.672 1.42233C162.672 1.42233 162.875 1.76098 163.282 2.43828C163.711 3.08849 164.268 3.96898 164.954 5.07975C165.661 6.19052 166.444 7.43675 167.301 8.81844C168.18 10.173 169.069 11.5683 169.969 13.0041C170.869 14.44 171.727 15.8217 172.541 17.1492C173.356 18.4496 174.063 19.5875 174.663 20.5628C175.285 21.5381 175.724 22.2561 175.981 22.7166H176.11C176.088 20.1971 176.067 17.7859 176.045 15.4831C176.024 13.1802 175.992 11.0806 175.949 9.18418C175.906 7.26065 175.842 5.63513 175.756 4.30763C175.692 3.22395 175.456 2.6821 175.049 2.6821H173.506C173.42 2.6821 173.345 2.62792 173.281 2.51955C173.238 2.38409 173.216 2.24863 173.216 2.11317C173.216 1.95062 173.238 1.78807 173.281 1.62552C173.345 1.43587 173.42 1.34105 173.506 1.34105C173.977 1.34105 174.545 1.3546 175.21 1.38169C175.874 1.40878 176.474 1.42233 177.01 1.42233C177.61 1.42233 178.253 1.40878 178.939 1.38169C179.625 1.32751 180.246 1.30042 180.803 1.30042C180.889 1.30042 180.954 1.39524 180.996 1.58488C181.061 1.77452 181.093 1.95062 181.093 2.11317C181.093 2.46537 180.996 2.64147 180.803 2.64147H179.292C178.842 2.64147 178.553 2.77693 178.424 3.04785C178.317 3.31877 178.232 3.79288 178.167 4.47018C178.103 5.22875 178.039 6.44789 177.974 8.12759C177.91 9.7802 177.856 11.7444 177.814 14.0201C177.771 16.2687 177.728 18.6935 177.685 21.2943C177.664 23.8951 177.653 26.523 177.653 29.1781C177.61 29.3677 177.439 29.4625 177.138 29.4625C176.838 29.4625 176.613 29.3677 176.463 29.1781Z" fill="#686868"/>
<path d="M218.988 26.1302C218.581 24.4776 218.153 22.825 217.702 21.1724C217.252 19.5198 216.802 17.8401 216.352 16.1333H210.533C209.826 18.9779 209.151 21.8632 208.508 24.7892C208.422 25.2226 208.358 25.6019 208.315 25.927C208.272 26.2521 208.251 26.5231 208.251 26.7398C208.251 27.1462 208.315 27.3494 208.443 27.3494H210.758C210.887 27.3494 210.973 27.4306 211.015 27.5932C211.08 27.7286 211.112 27.8641 211.112 27.9996C211.112 28.1079 211.08 28.2569 211.015 28.4466C210.973 28.6091 210.865 28.6904 210.694 28.6904C210.351 28.6904 209.922 28.6904 209.408 28.6904C208.894 28.6633 208.379 28.6498 207.865 28.6498C207.35 28.6498 206.911 28.6498 206.547 28.6498C205.925 28.6498 205.325 28.6633 204.746 28.6904C204.168 28.7446 203.578 28.7717 202.978 28.7717C202.785 28.7717 202.689 28.5414 202.689 28.0808C202.689 27.6203 202.785 27.39 202.978 27.39H204.586C205.057 27.39 205.411 27.092 205.647 26.496C206.268 24.8163 206.825 23.1636 207.318 21.5381C207.811 19.9126 208.304 18.2194 208.797 16.4584C209.29 14.6974 209.815 12.8281 210.372 10.8503C210.951 8.87262 211.616 6.70526 212.366 4.34826C212.43 4.13153 212.494 3.92834 212.559 3.73869C212.623 3.52196 212.655 3.33231 212.655 3.16976C212.655 2.92593 212.612 2.72274 212.526 2.56019C212.441 2.39764 212.398 2.26218 212.398 2.15381C212.398 1.93708 212.505 1.82871 212.719 1.82871C213.169 1.82871 213.512 1.73388 213.748 1.54424C213.984 1.3546 214.155 1.15141 214.262 0.934673C214.37 0.690845 214.466 0.474109 214.552 0.284465C214.638 0.0948216 214.755 0 214.905 0C214.991 0 215.066 0.13546 215.131 0.40638C215.195 0.650208 215.27 0.921127 215.356 1.21914L221.817 23.2856C222.289 24.8569 222.653 25.927 222.91 26.496C223.168 27.0649 223.371 27.3494 223.521 27.3494H224.679C224.893 27.3494 225 27.5525 225 27.9589C225 28.1486 224.979 28.3247 224.936 28.4872C224.914 28.6227 224.85 28.6904 224.743 28.6904C223.907 28.6904 223.157 28.6904 222.493 28.6904C221.85 28.6633 221.239 28.6498 220.66 28.6498C220.103 28.6498 219.438 28.6633 218.667 28.6904C217.917 28.7446 217.22 28.7717 216.577 28.7717C216.384 28.7717 216.288 28.5279 216.288 28.0402C216.288 27.6067 216.384 27.39 216.577 27.39H218.41C219.01 27.39 219.203 26.9701 218.988 26.1302ZM213.459 5.5674C213.009 7.05746 212.58 8.54752 212.173 10.0376C211.766 11.5005 211.358 12.9906 210.951 14.5078H215.902C215.538 13.0719 215.152 11.6225 214.745 10.1595C214.359 8.66943 213.973 7.13874 213.587 5.5674H213.459Z" fill="#686868"/>
<path d="M65.5801 39.2944C65.488 39.2944 65.421 39.342 65.3792 39.4372C65.2703 39.6595 65.1364 40.0034 64.9773 40.4691C64.8266 40.9241 64.6634 41.4374 64.4876 42.0089C64.3118 42.5698 64.1401 43.1306 63.9727 43.6915C63.8136 44.2418 63.6754 44.7339 63.5582 45.1678C63.441 45.5911 63.3615 45.8875 63.3197 46.0568C63.2862 46.152 63.2024 46.1997 63.0685 46.1997C62.9429 46.1997 62.8634 46.1467 62.8299 46.0409C62.7713 45.7552 62.6624 45.3583 62.5034 44.8503C62.3527 44.3424 62.1727 43.7868 61.9634 43.1836C61.7541 42.5803 61.5448 41.993 61.3355 41.4215C61.1262 40.8395 60.942 40.3368 60.7829 39.9135C60.6824 39.6489 60.5903 39.4849 60.5066 39.4214C60.4229 39.3473 60.2931 39.3103 60.1173 39.3103C60.0671 39.3103 60.042 39.2468 60.042 39.1198C60.042 39.0668 60.0503 39.0139 60.0671 38.961C60.0754 38.9081 60.0922 38.8817 60.1173 38.8817C60.3517 38.8817 60.5527 38.8869 60.7201 38.8975C60.8876 38.9081 61.0843 38.9134 61.3103 38.9134C61.4694 38.9134 61.662 38.9081 61.888 38.8975C62.1224 38.8869 62.382 38.8817 62.6666 38.8817C62.7001 38.8817 62.7211 38.9028 62.7294 38.9451C62.7378 38.9875 62.742 39.0351 62.742 39.088C62.742 39.2256 62.7169 39.2944 62.6666 39.2944H62.0638C61.9717 39.2944 61.9257 39.342 61.9257 39.4372C61.9257 39.4796 61.9592 39.6171 62.0261 39.85C62.0931 40.0828 62.1811 40.3791 62.2899 40.7389C62.4071 41.0987 62.5285 41.4903 62.6541 41.9136C62.7796 42.3369 62.9052 42.7602 63.0308 43.1836C63.1564 43.6069 63.2652 43.9931 63.3573 44.3424C63.6504 43.1042 63.9183 42.0882 64.161 41.2945C64.4038 40.4902 64.5252 39.9346 64.5252 39.6277C64.5252 39.5007 64.5085 39.4161 64.475 39.3737C64.4499 39.3314 64.4164 39.3103 64.3745 39.3103H63.8597C63.7927 39.3103 63.7592 39.2468 63.7592 39.1198C63.7592 39.0668 63.7634 39.0139 63.7717 38.961C63.7885 38.9081 63.8094 38.8817 63.8345 38.8817C64.0438 38.8817 64.2071 38.8869 64.3243 38.8975C64.4499 38.8975 64.5587 38.9028 64.6508 38.9134C64.7513 38.9134 64.8643 38.9134 64.9899 38.9134C65.1406 38.9134 65.2787 38.9081 65.4043 38.8975C65.5299 38.8869 65.6973 38.8817 65.9066 38.8817C65.9401 38.8817 65.961 38.9028 65.9694 38.9451C65.9861 38.9875 65.9946 39.0351 65.9946 39.088C65.9946 39.2256 65.9652 39.2944 65.9066 39.2944H65.5801Z" fill="#686868"/>
<path d="M79.8831 43.9614C79.8831 44.3635 79.8957 44.6652 79.9208 44.8662C79.9459 45.0673 79.9794 45.1996 80.0212 45.2631C80.0631 45.3266 80.105 45.3583 80.1468 45.3583H80.7622C80.7957 45.3583 80.8208 45.3901 80.8375 45.4536C80.8543 45.5171 80.8626 45.5753 80.8626 45.6282C80.8626 45.6705 80.8543 45.7181 80.8375 45.7711C80.8292 45.8134 80.8124 45.8346 80.7873 45.8346C80.5612 45.8346 80.3771 45.8346 80.2347 45.8346C80.1008 45.824 79.9752 45.8187 79.858 45.8187C79.7408 45.8187 79.5943 45.8187 79.4184 45.8187C79.0584 45.8187 78.7863 45.824 78.6021 45.8346C78.418 45.8557 78.2044 45.8663 77.9617 45.8663C77.9365 45.8663 77.9156 45.8398 77.8989 45.7869C77.8821 45.7234 77.8738 45.6705 77.8738 45.6282C77.8738 45.5753 77.878 45.5224 77.8864 45.4694C77.9031 45.4165 77.9198 45.3901 77.9366 45.3901H78.6649C78.7654 45.3901 78.8157 45.3001 78.8157 45.1202V41.3898C78.8157 40.9347 78.7989 40.6014 78.7655 40.3897C78.732 40.1675 78.6859 40.0246 78.6273 39.9611C78.577 39.887 78.5226 39.85 78.464 39.85H78.2128C78.1877 39.85 78.1627 39.8235 78.1375 39.7706C78.1208 39.7071 78.1124 39.6489 78.1124 39.596C78.1124 39.5642 78.1166 39.5219 78.125 39.469C78.1333 39.4055 78.1543 39.3737 78.1877 39.3737C78.3887 39.3737 78.5729 39.3208 78.7403 39.215C78.9077 39.0986 79.0585 38.9663 79.1924 38.8181C79.3264 38.6594 79.4393 38.5271 79.5314 38.4213C79.6235 38.3049 79.6947 38.2467 79.7449 38.2467C79.8705 38.2467 79.9333 38.3102 79.9333 38.4372C79.9333 38.5853 79.9291 38.7229 79.9208 38.8499C79.9208 38.9663 79.9166 39.1145 79.9082 39.2944C79.8998 39.4637 79.8915 39.6912 79.8831 39.977C79.8831 40.2627 79.8831 40.6437 79.8831 41.1199V43.9614ZM79.3556 37.0244C79.1715 37.0244 79.0166 36.945 78.891 36.7862C78.7738 36.6169 78.7152 36.4159 78.7152 36.183C78.7152 35.9608 78.7779 35.7756 78.9035 35.6274C79.0375 35.4793 79.1882 35.4052 79.3556 35.4052C79.5231 35.4052 79.6696 35.4846 79.7952 35.6433C79.9291 35.7915 79.9961 35.9714 79.9961 36.183C79.9961 36.4159 79.9333 36.6169 79.8077 36.7862C79.6905 36.945 79.5398 37.0244 79.3556 37.0244Z" fill="#686868"/>
<path d="M98.6727 43.5169C98.6727 43.8767 98.681 44.1572 98.6978 44.3582C98.7229 44.5593 98.7731 44.7022 98.8485 44.7868C98.9154 44.8503 99.0033 44.8821 99.1122 44.8821C99.1875 44.8821 99.263 44.8768 99.3383 44.8662C99.4137 44.8451 99.4805 44.8345 99.5391 44.8345C99.5642 44.8345 99.5852 44.8609 99.602 44.9138C99.6271 44.9668 99.6397 45.0197 99.6397 45.0726C99.6397 45.2102 99.6145 45.2895 99.5643 45.3107C99.2043 45.3848 98.9154 45.48 98.6978 45.5964C98.4801 45.7128 98.3127 45.8134 98.1954 45.898C98.0866 45.9933 98.0029 46.0409 97.9443 46.0409C97.8522 46.0409 97.7852 45.9668 97.7434 45.8187C97.7015 45.6599 97.6722 45.4853 97.6555 45.2948C97.6471 45.1043 97.6387 44.9562 97.6303 44.8503H97.6052C97.3959 45.1784 97.1155 45.4589 96.7638 45.6917C96.4206 45.9245 96.0061 46.0409 95.5206 46.0409C94.7587 46.0409 94.1601 45.7234 93.7248 45.0885C93.2978 44.4535 93.0843 43.6227 93.0843 42.5962C93.0843 41.8766 93.2141 41.2257 93.4736 40.6437C93.7415 40.051 94.0973 39.5801 94.541 39.2309C94.9847 38.8711 95.4703 38.6912 95.9978 38.6912C96.4583 38.6912 96.8057 38.7758 97.0401 38.9451C97.2829 39.1039 97.4712 39.252 97.6052 39.3896V36.564C97.6052 36.109 97.5885 35.7756 97.555 35.5639C97.5215 35.3417 97.4796 35.1988 97.4294 35.1353C97.3875 35.0613 97.3415 35.0242 97.2913 35.0242H96.7261C96.701 35.0242 96.6759 34.9978 96.6508 34.9448C96.6341 34.8813 96.6257 34.8231 96.6257 34.7702C96.6257 34.7385 96.6299 34.6961 96.6382 34.6432C96.6466 34.5797 96.6676 34.548 96.7011 34.548C97.1532 34.548 97.5215 34.4739 97.8061 34.3258C98.0992 34.1776 98.3294 34.0612 98.4969 33.9765C98.6225 33.9765 98.6852 34.04 98.6852 34.167C98.6852 34.3152 98.6852 34.585 98.6852 34.9766C98.6852 35.3576 98.681 35.8179 98.6727 36.3576C98.6727 36.8974 98.6727 37.4688 98.6727 38.0721C98.6727 38.6753 98.6727 39.2732 98.6727 39.8658V43.5169ZM97.6052 41.5009C97.5466 40.6543 97.375 40.0722 97.0903 39.7547C96.814 39.4267 96.4624 39.2626 96.0354 39.2626C95.6252 39.2626 95.2945 39.4214 95.0433 39.7389C94.7922 40.0563 94.6122 40.4532 94.5034 40.9294C94.3945 41.3951 94.3401 41.866 94.3401 42.3422C94.3401 42.8079 94.4155 43.2523 94.5662 43.6757C94.7169 44.0884 94.9345 44.427 95.2192 44.6916C95.5038 44.9456 95.8471 45.0726 96.2489 45.0726C96.6424 45.0726 96.9355 44.9826 97.128 44.8027C97.329 44.6228 97.488 44.4694 97.6052 44.3424V41.5009Z" fill="#686868"/>
<path d="M116.207 41.866C115.772 41.9083 115.248 41.9242 114.637 41.9136C114.026 41.903 113.319 41.9295 112.515 41.993C112.515 42.4904 112.586 42.9137 112.728 43.2629C112.871 43.6016 113.055 43.8767 113.281 44.0884C113.507 44.3 113.75 44.4535 114.009 44.5487C114.277 44.644 114.533 44.6916 114.775 44.6916C115.119 44.6916 115.395 44.6493 115.604 44.5646C115.822 44.48 115.989 44.3847 116.106 44.2789C116.232 44.1731 116.328 44.0778 116.395 43.9931C116.462 43.9085 116.525 43.8661 116.584 43.8661C116.676 43.8661 116.722 43.9296 116.722 44.0566C116.722 44.1201 116.68 44.2577 116.596 44.4694C116.521 44.681 116.395 44.9086 116.219 45.152C116.052 45.3954 115.822 45.607 115.529 45.7869C115.236 45.9563 114.876 46.0409 114.449 46.0409C113.946 46.0409 113.499 45.8769 113.105 45.5488C112.712 45.2102 112.402 44.7763 112.176 44.2471C111.95 43.718 111.837 43.1624 111.837 42.5803C111.837 41.9771 111.92 41.4374 112.088 40.9612C112.264 40.4744 112.49 40.0669 112.766 39.7389C113.051 39.4002 113.36 39.1462 113.695 38.9769C114.03 38.797 114.365 38.707 114.7 38.707C115.06 38.707 115.382 38.8182 115.667 39.0404C115.96 39.2626 116.194 39.5748 116.37 39.977C116.546 40.3685 116.634 40.8395 116.634 41.3898C116.634 41.5591 116.605 41.6755 116.546 41.739C116.487 41.8025 116.374 41.8448 116.207 41.866ZM114.361 39.5642C114.11 39.5642 113.854 39.6383 113.595 39.7865C113.344 39.9241 113.122 40.1357 112.929 40.4214C112.745 40.7072 112.62 41.067 112.553 41.5009C112.846 41.4586 113.159 41.4215 113.494 41.3898C113.829 41.358 114.147 41.3263 114.449 41.2945C114.75 41.2628 114.985 41.231 115.152 41.1993C115.303 41.1781 115.407 41.1464 115.466 41.104C115.533 41.0617 115.566 40.9929 115.566 40.8977C115.566 40.5379 115.449 40.2257 115.215 39.9611C114.989 39.6965 114.704 39.5642 114.361 39.5642Z" fill="#686868"/>
<path d="M131.187 39.8658C131.287 39.7283 131.429 39.5695 131.613 39.3896C131.798 39.2097 132.007 39.051 132.241 38.9134C132.476 38.7652 132.71 38.6912 132.945 38.6912C133.162 38.6912 133.322 38.7599 133.422 38.8975C133.531 39.0245 133.585 39.178 133.585 39.3579C133.585 39.5272 133.535 39.7018 133.434 39.8817C133.342 40.0616 133.204 40.2045 133.02 40.3103C132.878 40.1516 132.727 40.0246 132.568 39.9293C132.417 39.8341 132.267 39.7865 132.116 39.7865C131.923 39.7865 131.748 39.85 131.588 39.977C131.429 40.0934 131.3 40.2362 131.199 40.4056V43.9614C131.199 44.3635 131.212 44.6652 131.237 44.8662C131.262 45.0673 131.295 45.1996 131.337 45.2631C131.379 45.3266 131.421 45.3583 131.463 45.3583H132.078C132.112 45.3583 132.137 45.3901 132.154 45.4536C132.17 45.5171 132.179 45.5753 132.179 45.6282C132.179 45.6705 132.17 45.7181 132.154 45.7711C132.145 45.8134 132.128 45.8346 132.103 45.8346C131.877 45.8346 131.693 45.8346 131.551 45.8346C131.417 45.824 131.291 45.8187 131.174 45.8187C131.057 45.8187 130.91 45.8187 130.734 45.8187C130.374 45.8187 130.102 45.824 129.918 45.8346C129.734 45.8557 129.521 45.8663 129.278 45.8663C129.253 45.8663 129.232 45.8398 129.215 45.7869C129.198 45.7234 129.19 45.6705 129.19 45.6282C129.19 45.5753 129.194 45.5224 129.202 45.4694C129.219 45.4165 129.236 45.3901 129.253 45.3901H129.981C130.081 45.3901 130.132 45.3001 130.132 45.1202V41.3898C130.132 40.9347 130.115 40.6014 130.081 40.3897C130.048 40.1675 130.002 40.0246 129.943 39.9611C129.893 39.887 129.839 39.85 129.78 39.85H129.529C129.504 39.85 129.479 39.8235 129.454 39.7706C129.437 39.7071 129.428 39.6489 129.428 39.596C129.428 39.5642 129.433 39.5219 129.441 39.469C129.449 39.4055 129.47 39.3737 129.504 39.3737C129.696 39.3737 129.876 39.3208 130.044 39.215C130.211 39.0986 130.358 38.9663 130.483 38.8181C130.617 38.6594 130.73 38.5271 130.822 38.4213C130.914 38.3049 130.977 38.2467 131.011 38.2467C131.128 38.2467 131.187 38.3102 131.187 38.4372C131.187 38.7335 131.182 38.9822 131.174 39.1833C131.166 39.3737 131.161 39.6013 131.161 39.8658H131.187Z" fill="#686868"/>
<path d="M149.885 41.866C149.45 41.9083 148.927 41.9242 148.316 41.9136C147.704 41.903 146.997 41.9295 146.193 41.993C146.193 42.4904 146.264 42.9137 146.407 43.2629C146.549 43.6016 146.733 43.8767 146.959 44.0884C147.185 44.3 147.428 44.4535 147.688 44.5487C147.956 44.644 148.211 44.6916 148.454 44.6916C148.797 44.6916 149.073 44.6493 149.283 44.5646C149.5 44.48 149.668 44.3847 149.785 44.2789C149.911 44.1731 150.007 44.0778 150.074 43.9931C150.141 43.9085 150.204 43.8661 150.262 43.8661C150.354 43.8661 150.4 43.9296 150.4 44.0566C150.4 44.1201 150.358 44.2577 150.275 44.4694C150.199 44.681 150.074 44.9086 149.898 45.152C149.73 45.3954 149.5 45.607 149.207 45.7869C148.914 45.9563 148.554 46.0409 148.127 46.0409C147.625 46.0409 147.177 45.8769 146.784 45.5488C146.39 45.2102 146.08 44.7763 145.854 44.2471C145.628 43.718 145.515 43.1624 145.515 42.5803C145.515 41.9771 145.599 41.4374 145.766 40.9612C145.942 40.4744 146.168 40.0669 146.444 39.7389C146.729 39.4002 147.039 39.1462 147.374 38.9769C147.709 38.797 148.044 38.707 148.378 38.707C148.738 38.707 149.061 38.8182 149.345 39.0404C149.638 39.2626 149.873 39.5748 150.049 39.977C150.224 40.3685 150.312 40.8395 150.312 41.3898C150.312 41.5591 150.283 41.6755 150.224 41.739C150.166 41.8025 150.053 41.8448 149.885 41.866ZM148.039 39.5642C147.788 39.5642 147.533 39.6383 147.273 39.7865C147.022 39.9241 146.8 40.1357 146.608 40.4214C146.424 40.7072 146.298 41.067 146.231 41.5009C146.524 41.4586 146.838 41.4215 147.173 41.3898C147.508 41.358 147.826 41.3263 148.127 41.2945C148.429 41.2628 148.663 41.231 148.83 41.1993C148.981 41.1781 149.086 41.1464 149.144 41.104C149.211 41.0617 149.245 40.9929 149.245 40.8977C149.245 40.5379 149.128 40.2257 148.893 39.9611C148.667 39.6965 148.383 39.5642 148.039 39.5642Z" fill="#686868"/>
</svg>
