<svg width="225" height="47" viewBox="0 0 225 47" fill="none" xmlns="http://www.w3.org/2000/svg">
<path d="M16.2866 26.1095C15.8797 24.4582 15.4514 22.8069 15.0016 21.1556C14.5519 19.5043 14.1022 17.8259 13.6524 16.1205H7.83808C7.13137 18.9629 6.45679 21.8459 5.81432 24.7695C5.72866 25.2027 5.66441 25.5816 5.62158 25.9065C5.57874 26.2313 5.55734 26.502 5.55734 26.7186C5.55734 27.1247 5.62159 27.3277 5.75009 27.3277H8.06297C8.19146 27.3277 8.27712 27.4089 8.31995 27.5713C8.3842 27.7067 8.4163 27.842 8.4163 27.9774C8.4163 28.0857 8.3842 28.2346 8.31995 28.424C8.27712 28.5865 8.17005 28.6677 7.99873 28.6677C7.65608 28.6677 7.22774 28.6677 6.71376 28.6677C6.19979 28.6406 5.68582 28.6271 5.17184 28.6271C4.65787 28.6271 4.21887 28.6271 3.8548 28.6271C3.23375 28.6271 2.63409 28.6406 2.05586 28.6677C1.47764 28.7218 0.888729 28.7489 0.289091 28.7489C0.09635 28.7489 0 28.5188 0 28.0586C0 27.5984 0.09635 27.3683 0.289091 27.3683H1.89528C2.36643 27.3683 2.71976 27.0705 2.95533 26.475C3.57639 24.7966 4.1332 23.1453 4.62576 21.5211C5.11832 19.8968 5.61086 18.2049 6.10342 16.4453C6.59597 14.6858 7.12067 12.8179 7.67747 10.8417C8.25569 8.86559 8.91958 6.69995 9.66913 4.34482C9.73337 4.12825 9.79763 3.92522 9.86188 3.73573C9.92612 3.51917 9.95825 3.32967 9.95825 3.16725C9.95825 2.92362 9.9154 2.72059 9.82974 2.55816C9.74408 2.39574 9.70123 2.26039 9.70123 2.15211C9.70123 1.93554 9.80833 1.82726 10.0225 1.82726C10.4722 1.82726 10.8149 1.73251 11.0504 1.54302C11.286 1.35352 11.4573 1.1505 11.5644 0.933933C11.6715 0.690298 11.7679 0.473734 11.8535 0.284239C11.9392 0.0947465 12.057 0 12.2069 0C12.2925 0 12.3675 0.135353 12.4317 0.406058C12.496 0.649693 12.571 0.920397 12.6566 1.21817L19.1134 23.2671C19.5846 24.8372 19.9486 25.9065 20.2056 26.475C20.4626 27.0434 20.6661 27.3277 20.816 27.3277H21.9724C22.1866 27.3277 22.2937 27.5307 22.2937 27.9368C22.2937 28.1263 22.2722 28.3022 22.2294 28.4647C22.208 28.6 22.1437 28.6677 22.0367 28.6677C21.2015 28.6677 20.4519 28.6677 19.788 28.6677C19.1456 28.6406 18.5352 28.6271 17.957 28.6271C17.4002 28.6271 16.7363 28.6406 15.9653 28.6677C15.2158 28.7218 14.5198 28.7489 13.8773 28.7489C13.6846 28.7489 13.5882 28.5053 13.5882 28.018C13.5882 27.5849 13.6846 27.3683 13.8773 27.3683H15.7083C16.308 27.3683 16.5007 26.9487 16.2866 26.1095ZM10.7613 5.56299C10.3116 7.05187 9.88328 8.54075 9.47638 10.0296C9.06948 11.4914 8.66261 12.9803 8.25572 14.4963H13.2027C12.8386 13.0615 12.4532 11.6133 12.0463 10.1514C11.6608 8.66257 11.2753 7.13308 10.8898 5.56299H10.7613Z" fill="#6D6D6D"/>
<path d="M50.9159 27.0435H52.7791C54.2567 27.0435 55.6488 26.8946 56.9551 26.5968C58.2615 26.299 59.2252 25.8794 59.8462 25.338L60.0711 23.1047C60.0925 22.9964 60.1567 22.9152 60.2638 22.8611C60.3923 22.8069 60.5315 22.7798 60.6814 22.7798C61.0027 22.7798 61.1526 22.8881 61.1311 23.1047C61.0241 24.1063 60.9491 25.1756 60.9063 26.3125C60.8635 27.4495 60.8421 28.5323 60.8421 29.561C60.8421 29.7505 60.6814 29.8453 60.3602 29.8453C60.2317 29.8453 60.1139 29.8182 60.0069 29.764C59.8998 29.737 59.8462 29.6693 59.8462 29.561V28.6677H49.4061C48.5066 28.6677 47.7892 28.6677 47.2538 28.6677C46.7184 28.6948 46.2794 28.7083 45.9368 28.7083C45.5941 28.7354 45.2515 28.7489 44.9088 28.7489C44.8231 28.7489 44.7589 28.6812 44.7161 28.5459C44.6733 28.4105 44.6518 28.2616 44.6518 28.0992C44.6518 27.9097 44.6733 27.7473 44.7161 27.6119C44.7589 27.4495 44.8231 27.3683 44.9088 27.3683H46.2901C46.8469 27.3683 47.2003 27.2329 47.3502 26.9622C47.5215 26.6915 47.6072 26.2043 47.6072 25.5004V6.25329C47.6072 5.19754 47.5643 4.42603 47.4787 3.93876C47.4144 3.42442 47.3288 3.08604 47.2217 2.92362C47.136 2.76119 47.0396 2.67998 46.9326 2.67998H45.0694C44.8981 2.67998 44.8124 2.42281 44.8124 1.90847C44.8124 1.77312 44.8232 1.6513 44.8446 1.54302C44.8874 1.40766 44.9623 1.33999 45.0694 1.33999C45.7547 1.33999 46.44 1.35353 47.1253 1.3806C47.8106 1.3806 48.4745 1.3806 49.117 1.3806C50.0378 1.3806 50.7553 1.3806 51.2692 1.3806C51.8046 1.35353 52.2437 1.32646 52.5863 1.29939C52.929 1.27232 53.2716 1.25878 53.6143 1.25878C53.7213 1.25878 53.7856 1.32646 53.807 1.46181C53.8499 1.59716 53.8713 1.74605 53.8713 1.90847C53.8713 2.09797 53.8499 2.27393 53.807 2.43635C53.7642 2.5717 53.6999 2.63937 53.6143 2.63937H52.233C51.6976 2.63937 51.3442 2.77473 51.1729 3.04543C51.0015 3.31614 50.9159 3.80341 50.9159 4.50724V27.0435Z" fill="#6D6D6D"/>
<path d="M90.2859 23.7544C90.2859 24.7831 90.3181 25.5546 90.3824 26.0689C90.468 26.5832 90.5644 26.9216 90.6714 27.0841C90.7785 27.2465 90.8749 27.3277 90.9605 27.3277H92.8237C92.9308 27.3277 93.0057 27.4089 93.0486 27.5713C93.1128 27.7338 93.1449 27.9097 93.1449 28.0992C93.1449 28.4782 93.0379 28.6677 92.8237 28.6677H91.4424C91.2282 28.6677 91.0034 28.6677 90.7678 28.6677C90.5322 28.6406 90.2967 28.6271 90.0611 28.6271H88.7762C87.8767 28.6271 87.1593 28.6406 86.6239 28.6677C86.0885 28.6677 85.6494 28.6812 85.3068 28.7083C84.9641 28.7354 84.6215 28.7489 84.2789 28.7489C84.1932 28.7489 84.1289 28.6812 84.0861 28.5459C84.0433 28.4105 84.0219 28.2616 84.0219 28.0992C84.0219 27.9097 84.0433 27.7473 84.0861 27.6119C84.1289 27.4495 84.1932 27.3683 84.2789 27.3683H85.6602C86.217 27.3683 86.5704 27.2329 86.7203 26.9622C86.8916 26.6915 86.9772 26.2043 86.9772 25.5004V6.25329C86.9772 5.19754 86.9344 4.42603 86.8487 3.93876C86.7845 3.42442 86.6988 3.08604 86.5918 2.92362C86.5061 2.76119 86.4097 2.67998 86.3026 2.67998H84.4395C84.2681 2.67998 84.1825 2.42281 84.1825 1.90847C84.1825 1.77312 84.1932 1.6513 84.2146 1.54302C84.2574 1.40766 84.3324 1.33999 84.4395 1.33999C85.3175 1.33999 86.0885 1.35353 86.7524 1.3806C87.4377 1.40767 88.0159 1.4212 88.4871 1.4212H92.1812C94.1943 1.4212 95.8219 1.75959 97.064 2.43635C98.3061 3.11311 99.2163 4.00644 99.7945 5.11633C100.394 6.19915 100.694 7.34965 100.694 8.56782C100.694 9.81307 100.405 11.0177 99.8266 12.1817C99.2698 13.3458 98.4667 14.3068 97.4174 15.0647C96.3894 15.8227 95.1581 16.2017 93.7232 16.2017C93.2092 16.2017 92.6631 16.134 92.0849 15.9987C91.5067 15.8363 90.907 15.5791 90.2859 15.2272V23.7544ZM97.2246 8.89267C97.2246 7.91813 97.0212 6.98419 96.6143 6.09087C96.2074 5.19754 95.5757 4.46663 94.719 3.89815C93.8624 3.32967 92.7701 3.04543 91.4424 3.04543C91.0355 3.04543 90.7356 3.18079 90.5429 3.45149C90.3716 3.69513 90.2859 4.18239 90.2859 4.9133V13.9278C90.8642 14.0902 91.4317 14.1714 91.9885 14.1714C93.1449 14.1714 94.1086 13.9278 94.8796 13.4405C95.6505 12.9262 96.2288 12.2765 96.6143 11.4914C97.0212 10.6793 97.2246 9.81306 97.2246 8.89267Z" fill="#6D6D6D"/>
<path d="M130.283 23.7544C130.283 24.7831 130.316 25.5546 130.38 26.0689C130.465 26.5832 130.562 26.9216 130.669 27.0841C130.776 27.2465 130.872 27.3277 130.958 27.3277H132.821C132.993 27.3277 133.078 27.5849 133.078 28.0992C133.078 28.2075 133.057 28.3293 133.014 28.4647C132.992 28.6 132.928 28.6677 132.821 28.6677C132.157 28.6677 131.472 28.6677 130.765 28.6677C130.08 28.6406 129.416 28.6271 128.774 28.6271C127.874 28.6271 127.157 28.6406 126.621 28.6677C126.086 28.6677 125.647 28.6812 125.304 28.7083C124.962 28.7354 124.619 28.7489 124.276 28.7489C124.191 28.7489 124.126 28.6812 124.084 28.5459C124.041 28.4105 124.019 28.2616 124.019 28.0992C124.019 27.9097 124.041 27.7473 124.084 27.6119C124.126 27.4495 124.191 27.3683 124.276 27.3683H125.658C126.214 27.3683 126.568 27.2329 126.718 26.9622C126.889 26.6915 126.975 26.2043 126.975 25.5004V6.25329C126.975 5.19754 126.932 4.42603 126.846 3.93876C126.782 3.42442 126.696 3.08604 126.589 2.92362C126.504 2.76119 126.407 2.67998 126.3 2.67998H124.437C124.266 2.67998 124.18 2.42281 124.18 1.90847C124.18 1.77312 124.191 1.6513 124.212 1.54302C124.255 1.40766 124.33 1.33999 124.437 1.33999C125.122 1.33999 125.808 1.35353 126.493 1.3806C127.178 1.3806 127.842 1.3806 128.485 1.3806C129.405 1.3806 130.123 1.3806 130.637 1.3806C131.172 1.35353 131.611 1.32646 131.954 1.29939C132.296 1.27232 132.639 1.25878 132.982 1.25878C133.089 1.25878 133.153 1.32646 133.175 1.46181C133.217 1.59716 133.239 1.74605 133.239 1.90847C133.239 2.09797 133.217 2.27393 133.175 2.43635C133.132 2.5717 133.067 2.63937 132.982 2.63937H131.601C131.065 2.63937 130.712 2.77473 130.54 3.04543C130.369 3.31614 130.283 3.80341 130.283 4.50724V23.7544Z" fill="#6D6D6D"/>
<path d="M176.324 29.155C176.324 29.155 176.088 28.803 175.617 28.0992C175.146 27.3954 174.503 26.4344 173.689 25.2162C172.897 23.998 171.987 22.6174 170.959 21.0744C169.931 19.5314 168.86 17.9207 167.747 16.2423C166.654 14.5639 165.573 12.9126 164.502 11.2884C163.431 9.66418 162.446 8.16176 161.547 6.78116H161.418C161.461 10.6793 161.493 14.1037 161.515 17.0544C161.536 20.0051 161.568 22.4415 161.611 24.3635C161.632 25.0673 161.697 25.7441 161.804 26.3938C161.911 27.0164 162.071 27.3277 162.286 27.3277H164.052C164.16 27.3277 164.234 27.4089 164.277 27.5713C164.32 27.7067 164.342 27.8691 164.342 28.0586C164.342 28.4647 164.245 28.6677 164.052 28.6677C163.26 28.6677 162.607 28.6677 162.093 28.6677C161.579 28.6406 161.097 28.6271 160.647 28.6271C159.919 28.6271 159.213 28.6406 158.527 28.6677C157.842 28.7218 157.274 28.7489 156.825 28.7489C156.739 28.7489 156.675 28.6812 156.632 28.5459C156.611 28.3834 156.6 28.221 156.6 28.0586C156.6 27.8962 156.611 27.7473 156.632 27.6119C156.675 27.4495 156.739 27.3683 156.825 27.3683H157.885C158.356 27.3683 158.699 27.3006 158.913 27.1653C159.148 27.0028 159.277 26.7051 159.298 26.2719C159.405 24.8913 159.491 23.2806 159.555 21.4399C159.641 19.5991 159.705 17.6635 159.748 15.6332C159.812 13.6029 159.855 11.6268 159.876 9.70478C159.919 7.7557 159.941 5.99612 159.941 4.42603L159.716 4.10118C159.459 3.69513 159.213 3.39735 158.977 3.20786C158.763 2.99129 158.484 2.8424 158.142 2.76119C157.82 2.67998 157.349 2.63937 156.728 2.63937C156.664 2.63937 156.61 2.58524 156.568 2.47695C156.546 2.3416 156.536 2.20625 156.536 2.07089C156.536 1.90847 156.546 1.74605 156.568 1.58362C156.61 1.4212 156.664 1.33999 156.728 1.33999C157.007 1.33999 157.392 1.35353 157.885 1.3806C158.399 1.3806 158.945 1.3806 159.523 1.3806C160.123 1.3806 160.69 1.39413 161.226 1.4212C161.761 1.4212 162.2 1.4212 162.543 1.4212C162.543 1.4212 162.746 1.75959 163.153 2.43635C163.581 3.08604 164.138 3.96583 164.823 5.07572C165.53 6.18561 166.312 7.43086 167.168 8.81145C168.046 10.165 168.935 11.5591 169.835 12.9938C170.734 14.4286 171.591 15.8092 172.405 17.1356C173.218 18.435 173.925 19.572 174.525 20.5465C175.146 21.5211 175.585 22.2384 175.842 22.6986H175.97C175.949 20.1811 175.927 17.7718 175.906 15.4708C175.885 13.1698 175.852 11.0718 175.81 9.17691C175.767 7.2549 175.703 5.63067 175.617 4.30421C175.553 3.22139 175.317 2.67998 174.91 2.67998H173.368C173.283 2.67998 173.208 2.62584 173.143 2.51756C173.101 2.38221 173.079 2.24685 173.079 2.1115C173.079 1.94908 173.101 1.78665 173.143 1.62423C173.208 1.43474 173.283 1.33999 173.368 1.33999C173.839 1.33999 174.407 1.35353 175.071 1.3806C175.735 1.40767 176.334 1.4212 176.87 1.4212C177.469 1.4212 178.112 1.40767 178.797 1.3806C179.482 1.32646 180.103 1.29939 180.66 1.29939C180.746 1.29939 180.81 1.39413 180.853 1.58362C180.917 1.77312 180.949 1.94908 180.949 2.1115C180.949 2.46342 180.853 2.63937 180.66 2.63937H179.15C178.701 2.63937 178.412 2.77473 178.283 3.04543C178.176 3.31614 178.09 3.78987 178.026 4.46664C177.962 5.22461 177.898 6.44278 177.833 8.12116C177.769 9.77246 177.716 11.7351 177.673 14.009C177.63 16.2558 177.587 18.6787 177.544 21.2774C177.523 23.8762 177.512 26.502 177.512 29.155C177.469 29.3444 177.298 29.4392 176.998 29.4392C176.698 29.4392 176.474 29.3444 176.324 29.155Z" fill="#6D6D6D"/>
<path d="M218.815 26.1095C218.408 24.4582 217.98 22.8069 217.53 21.1556C217.08 19.5043 216.631 17.8259 216.181 16.1205H210.367C209.66 18.9629 208.985 21.8459 208.343 24.7695C208.257 25.2027 208.193 25.5816 208.15 25.9065C208.107 26.2313 208.086 26.502 208.086 26.7186C208.086 27.1247 208.15 27.3277 208.278 27.3277H210.591C210.72 27.3277 210.805 27.4089 210.848 27.5713C210.913 27.7067 210.945 27.842 210.945 27.9774C210.945 28.0857 210.913 28.2346 210.848 28.424C210.805 28.5865 210.698 28.6677 210.527 28.6677C210.184 28.6677 209.756 28.6677 209.242 28.6677C208.728 28.6406 208.214 28.6271 207.7 28.6271C207.186 28.6271 206.747 28.6271 206.383 28.6271C205.762 28.6271 205.162 28.6406 204.584 28.6677C204.006 28.7218 203.417 28.7489 202.817 28.7489C202.625 28.7489 202.528 28.5188 202.528 28.0586C202.528 27.5984 202.625 27.3683 202.817 27.3683H204.424C204.895 27.3683 205.248 27.0705 205.484 26.475C206.105 24.7966 206.662 23.1453 207.154 21.5211C207.647 19.8968 208.139 18.2049 208.632 16.4453C209.124 14.6858 209.649 12.8179 210.206 10.8417C210.784 8.86559 211.448 6.69995 212.198 4.34482C212.262 4.12825 212.326 3.92522 212.39 3.73573C212.454 3.51917 212.487 3.32967 212.487 3.16725C212.487 2.92362 212.444 2.72059 212.358 2.55816C212.272 2.39574 212.23 2.26039 212.23 2.15211C212.23 1.93554 212.337 1.82726 212.551 1.82726C213.001 1.82726 213.343 1.73251 213.579 1.54302C213.814 1.35352 213.986 1.1505 214.093 0.933933C214.2 0.690298 214.296 0.473734 214.382 0.284239C214.468 0.0947465 214.585 0 214.735 0C214.821 0 214.896 0.135353 214.96 0.406058C215.024 0.649693 215.099 0.920397 215.185 1.21817L221.642 23.2671C222.113 24.8372 222.477 25.9065 222.734 26.475C222.991 27.0434 223.194 27.3277 223.344 27.3277H224.501C224.715 27.3277 224.822 27.5307 224.822 27.9368C224.822 28.1263 224.801 28.3022 224.758 28.4647C224.736 28.6 224.672 28.6677 224.565 28.6677C223.73 28.6677 222.98 28.6677 222.316 28.6677C221.674 28.6406 221.064 28.6271 220.485 28.6271C219.928 28.6271 219.265 28.6406 218.494 28.6677C217.744 28.7218 217.048 28.7489 216.406 28.7489C216.213 28.7489 216.117 28.5053 216.117 28.018C216.117 27.5849 216.213 27.3683 216.406 27.3683H218.237C218.836 27.3683 219.029 26.9487 218.815 26.1095ZM213.29 5.56299C212.84 7.05187 212.412 8.54075 212.005 10.0296C211.598 11.4914 211.191 12.9803 210.784 14.4963H215.731C215.367 13.0615 214.981 11.6133 214.575 10.1514C214.189 8.66257 213.804 7.13308 213.418 5.56299H213.29Z" fill="#6D6D6D"/>
<path d="M65.5282 39.2633C65.4362 39.2633 65.3692 39.3108 65.3274 39.406C65.2186 39.6281 65.0848 39.9717 64.9259 40.437C64.7753 40.8917 64.6122 41.4046 64.4365 41.9756C64.2608 42.536 64.0893 43.0965 63.922 43.6569C63.7631 44.2068 63.625 44.6985 63.5079 45.1321C63.3908 45.555 63.3113 45.8511 63.2695 46.0203C63.236 46.1155 63.1524 46.1631 63.0185 46.1631C62.8931 46.1631 62.8136 46.1102 62.7801 46.0044C62.7216 45.7189 62.6128 45.3224 62.4539 44.8148C62.3033 44.3072 62.1234 43.7521 61.9143 43.1493C61.7051 42.5466 61.496 41.9597 61.2869 41.3887C61.0778 40.8071 60.8937 40.3048 60.7348 39.8819C60.6344 39.6175 60.5423 39.4536 60.4587 39.3901C60.375 39.3161 60.2454 39.2791 60.0697 39.2791C60.0195 39.2791 59.9944 39.2157 59.9944 39.0888C59.9944 39.0359 60.0028 38.983 60.0195 38.9302C60.0279 38.8773 60.0446 38.8509 60.0697 38.8509C60.3039 38.8509 60.5047 38.8561 60.672 38.8667C60.8393 38.8773 61.0359 38.8826 61.2618 38.8826C61.4207 38.8826 61.6131 38.8773 61.839 38.8667C62.0732 38.8561 62.3326 38.8509 62.617 38.8509C62.6505 38.8509 62.6714 38.872 62.6797 38.9143C62.6881 38.9566 62.6923 39.0042 62.6923 39.057C62.6923 39.1945 62.6672 39.2633 62.617 39.2633H62.0147C61.9227 39.2633 61.8767 39.3108 61.8767 39.406C61.8767 39.4483 61.9101 39.5858 61.977 39.8184C62.0439 40.051 62.1318 40.3471 62.2406 40.7067C62.3577 41.0662 62.479 41.4574 62.6044 41.8804C62.7299 42.3034 62.8554 42.7264 62.9809 43.1493C63.1064 43.5723 63.2151 43.9583 63.3072 44.3073C63.6 43.07 63.8676 42.0549 64.1102 41.2618C64.3528 40.4582 64.4741 39.903 64.4741 39.5963C64.4741 39.4695 64.4574 39.3849 64.4239 39.3426C64.3988 39.3003 64.3654 39.2791 64.3235 39.2791H63.8091C63.7422 39.2791 63.7087 39.2157 63.7087 39.0888C63.7087 39.0359 63.7129 38.983 63.7212 38.9302C63.738 38.8773 63.7589 38.8509 63.784 38.8509C63.9931 38.8509 64.1562 38.8561 64.2734 38.8667C64.3988 38.8667 64.5076 38.872 64.5996 38.8826C64.7 38.8826 64.813 38.8826 64.9384 38.8826C65.089 38.8826 65.227 38.8773 65.3525 38.8667C65.478 38.8561 65.6453 38.8509 65.8544 38.8509C65.8879 38.8509 65.9088 38.872 65.9172 38.9143C65.9339 38.9566 65.9423 39.0042 65.9423 39.057C65.9423 39.1945 65.913 39.2633 65.8544 39.2633H65.5282Z" fill="#6D6D6D"/>
<path d="M79.8198 43.9266C79.8198 44.3284 79.8324 44.6298 79.8575 44.8307C79.8826 45.0316 79.916 45.1638 79.9579 45.2272C79.9997 45.2907 80.0415 45.3224 80.0834 45.3224H80.6982C80.7317 45.3224 80.7568 45.3541 80.7735 45.4176C80.7902 45.481 80.7986 45.5392 80.7986 45.592C80.7986 45.6343 80.7902 45.6819 80.7735 45.7348C80.7651 45.7771 80.7484 45.7982 80.7233 45.7982C80.4974 45.7982 80.3134 45.7982 80.1712 45.7982C80.0373 45.7877 79.9118 45.7824 79.7947 45.7824C79.6776 45.7824 79.5312 45.7824 79.3555 45.7824C78.9958 45.7824 78.7239 45.7877 78.5399 45.7982C78.3559 45.8194 78.1425 45.83 77.8999 45.83C77.8748 45.83 77.8539 45.8035 77.8372 45.7507C77.8204 45.6872 77.8121 45.6343 77.8121 45.592C77.8121 45.5392 77.8163 45.4863 77.8247 45.4334C77.8414 45.3806 77.8581 45.3541 77.8749 45.3541H78.6026C78.703 45.3541 78.7532 45.2642 78.7532 45.0845V41.357C78.7532 40.9023 78.7365 40.5692 78.7031 40.3577C78.6696 40.1356 78.6236 39.9929 78.565 39.9294C78.5148 39.8554 78.4604 39.8184 78.4018 39.8184H78.1509C78.1258 39.8184 78.1008 39.792 78.0757 39.7391C78.0589 39.6757 78.0505 39.6175 78.0505 39.5646C78.0505 39.5329 78.0547 39.4906 78.0631 39.4377C78.0714 39.3743 78.0924 39.3426 78.1258 39.3426C78.3266 39.3426 78.5106 39.2897 78.6779 39.1839C78.8452 39.0676 78.9958 38.9354 79.1297 38.7874C79.2635 38.6288 79.3764 38.4966 79.4684 38.3909C79.5605 38.2745 79.6316 38.2164 79.6818 38.2164C79.8073 38.2164 79.87 38.2798 79.87 38.4067C79.87 38.5548 79.8658 38.6922 79.8575 38.8191C79.8575 38.9354 79.8533 39.0835 79.8449 39.2633C79.8365 39.4324 79.8282 39.6598 79.8198 39.9453C79.8198 40.2308 79.8198 40.6115 79.8198 41.0873V43.9266ZM79.2928 36.995C79.1088 36.995 78.954 36.9157 78.8286 36.7571C78.7114 36.5879 78.6528 36.387 78.6528 36.1544C78.6528 35.9323 78.7155 35.7473 78.841 35.5992C78.9749 35.4512 79.1255 35.3771 79.2928 35.3771C79.4601 35.3771 79.6065 35.4565 79.732 35.6151C79.8658 35.7631 79.9327 35.9429 79.9327 36.1544C79.9327 36.387 79.87 36.5879 79.7445 36.7571C79.6274 36.9157 79.4768 36.995 79.2928 36.995Z" fill="#6D6D6D"/>
<path d="M98.5945 43.4824C98.5945 43.842 98.6029 44.1222 98.6196 44.3231C98.6447 44.524 98.6949 44.6668 98.7702 44.7514C98.8371 44.8148 98.9249 44.8465 99.0337 44.8465C99.109 44.8465 99.1843 44.8413 99.2596 44.8307C99.3349 44.8095 99.4017 44.799 99.4603 44.799C99.4854 44.799 99.5063 44.8254 99.5231 44.8783C99.5482 44.9311 99.5608 44.984 99.5608 45.0369C99.5608 45.1744 99.5356 45.2537 99.4854 45.2748C99.1257 45.3488 98.8371 45.444 98.6196 45.5603C98.4021 45.6766 98.2348 45.7771 98.1177 45.8617C98.0089 45.9569 97.9253 46.0044 97.8667 46.0044C97.7747 46.0044 97.7078 45.9304 97.666 45.7824C97.6241 45.6238 97.5948 45.4493 97.5781 45.2589C97.5697 45.0686 97.5614 44.9206 97.553 44.8148H97.5279C97.3187 45.1426 97.0385 45.4229 96.6872 45.6555C96.3442 45.8881 95.9301 46.0044 95.4449 46.0044C94.6836 46.0044 94.0855 45.6872 93.6505 45.0527C93.2239 44.4183 93.0106 43.5882 93.0106 42.5625C93.0106 41.8434 93.1402 41.1931 93.3996 40.6115C93.6673 40.0193 94.0228 39.5488 94.4661 39.1998C94.9095 38.8403 95.3947 38.6605 95.9218 38.6605C96.3819 38.6605 96.729 38.7451 96.9632 38.9143C97.2058 39.0729 97.394 39.221 97.5279 39.3584V36.5351C97.5279 36.0804 97.5112 35.7473 97.4777 35.5358C97.4443 35.3137 97.4024 35.1709 97.3522 35.1075C97.3104 35.0335 97.2644 34.9965 97.2142 34.9965H96.6495C96.6244 34.9965 96.5993 34.97 96.5742 34.9172C96.5575 34.8537 96.5492 34.7956 96.5492 34.7427C96.5492 34.711 96.5533 34.6687 96.5617 34.6158C96.5701 34.5523 96.591 34.5206 96.6245 34.5206C97.0762 34.5206 97.4443 34.4466 97.7287 34.2986C98.0215 34.1505 98.2516 34.0342 98.4189 33.9496C98.5443 33.9496 98.6071 34.013 98.6071 34.1399C98.6071 34.288 98.6071 34.5576 98.6071 34.9489C98.6071 35.3296 98.6029 35.7896 98.5945 36.3288C98.5945 36.8681 98.5945 37.4392 98.5945 38.0419C98.5945 38.6446 98.5945 39.2421 98.5945 39.8343V43.4824ZM97.5279 41.468C97.4693 40.6221 97.2978 40.0405 97.0134 39.7232C96.7374 39.3954 96.386 39.2315 95.9594 39.2315C95.5495 39.2315 95.219 39.3901 94.9681 39.7074C94.7171 40.0246 94.5373 40.4212 94.4285 40.897C94.3197 41.3623 94.2654 41.8328 94.2654 42.3087C94.2654 42.774 94.3407 43.2181 94.4913 43.6411C94.6419 44.0535 94.8593 44.3918 95.1438 44.6562C95.4282 44.91 95.7712 45.0369 96.1727 45.0369C96.5659 45.0369 96.8587 44.947 97.0511 44.7672C97.2519 44.5875 97.4108 44.4342 97.5279 44.3073V41.468Z" fill="#6D6D6D"/>
<path d="M116.115 41.8328C115.68 41.8751 115.157 41.891 114.546 41.8804C113.936 41.8698 113.229 41.8963 112.426 41.9597C112.426 42.4567 112.497 42.8797 112.639 43.2287C112.781 43.567 112.965 43.842 113.191 44.0535C113.417 44.265 113.66 44.4183 113.919 44.5135C114.187 44.6086 114.442 44.6562 114.684 44.6562C115.027 44.6562 115.303 44.6139 115.513 44.5293C115.73 44.4447 115.897 44.3495 116.014 44.2438C116.14 44.1381 116.236 44.0429 116.303 43.9583C116.37 43.8737 116.433 43.8314 116.491 43.8314C116.583 43.8314 116.629 43.8948 116.629 44.0217C116.629 44.0852 116.588 44.2227 116.504 44.4341C116.429 44.6456 116.303 44.873 116.127 45.1162C115.96 45.3594 115.73 45.5709 115.437 45.7507C115.144 45.9198 114.785 46.0044 114.358 46.0044C113.856 46.0044 113.409 45.8405 113.015 45.5127C112.622 45.1744 112.313 44.7408 112.087 44.2121C111.861 43.6834 111.748 43.1282 111.748 42.5466C111.748 41.9439 111.832 41.4046 111.999 40.9287C112.175 40.4423 112.401 40.0352 112.677 39.7074C112.961 39.369 113.271 39.1152 113.605 38.946C113.94 38.7663 114.275 38.6764 114.609 38.6764C114.969 38.6764 115.291 38.7874 115.575 39.0095C115.868 39.2315 116.102 39.5435 116.278 39.9453C116.454 40.3366 116.542 40.8071 116.542 41.357C116.542 41.5262 116.512 41.6425 116.454 41.7059C116.395 41.7694 116.282 41.8117 116.115 41.8328ZM114.27 39.5329C114.019 39.5329 113.764 39.6069 113.505 39.755C113.254 39.8924 113.032 40.1039 112.84 40.3894C112.656 40.6749 112.53 41.0345 112.463 41.468C112.756 41.4257 113.07 41.3887 113.404 41.357C113.739 41.3253 114.057 41.2935 114.358 41.2618C114.659 41.2301 114.894 41.1984 115.061 41.1666C115.211 41.1455 115.316 41.1138 115.375 41.0715C115.441 41.0292 115.475 40.9604 115.475 40.8653C115.475 40.5057 115.358 40.1938 115.124 39.9294C114.898 39.6651 114.613 39.5329 114.27 39.5329Z" fill="#6D6D6D"/>
<path d="M131.083 39.8343C131.183 39.6968 131.325 39.5382 131.509 39.3584C131.693 39.1787 131.902 39.02 132.137 38.8826C132.371 38.7345 132.605 38.6605 132.839 38.6605C133.057 38.6605 133.216 38.7292 133.316 38.8667C133.425 38.9936 133.479 39.1469 133.479 39.3267C133.479 39.4959 133.429 39.6704 133.329 39.8501C133.237 40.0299 133.099 40.1727 132.915 40.2784C132.772 40.1198 132.622 39.9929 132.463 39.8977C132.312 39.8025 132.162 39.755 132.011 39.755C131.819 39.755 131.643 39.8184 131.484 39.9453C131.325 40.0616 131.196 40.2044 131.095 40.3736V43.9266C131.095 44.3284 131.108 44.6298 131.133 44.8307C131.158 45.0316 131.191 45.1638 131.233 45.2272C131.275 45.2907 131.317 45.3224 131.359 45.3224H131.974C132.007 45.3224 132.032 45.3541 132.049 45.4176C132.066 45.481 132.074 45.5392 132.074 45.592C132.074 45.6343 132.066 45.6819 132.049 45.7348C132.04 45.7771 132.024 45.7982 131.999 45.7982C131.773 45.7982 131.589 45.7982 131.447 45.7982C131.313 45.7877 131.187 45.7824 131.07 45.7824C130.953 45.7824 130.807 45.7824 130.631 45.7824C130.271 45.7824 129.999 45.7877 129.815 45.7982C129.631 45.8194 129.418 45.83 129.175 45.83C129.15 45.83 129.129 45.8035 129.113 45.7507C129.096 45.6872 129.088 45.6343 129.088 45.592C129.088 45.5392 129.092 45.4863 129.1 45.4334C129.117 45.3806 129.133 45.3541 129.15 45.3541H129.878C129.978 45.3541 130.029 45.2642 130.029 45.0845V41.357C130.029 40.9023 130.012 40.5692 129.978 40.3577C129.945 40.1356 129.899 39.9929 129.84 39.9294C129.79 39.8554 129.736 39.8184 129.677 39.8184H129.426C129.401 39.8184 129.376 39.792 129.351 39.7391C129.334 39.6757 129.326 39.6175 129.326 39.5646C129.326 39.5329 129.33 39.4906 129.338 39.4377C129.347 39.3743 129.368 39.3426 129.401 39.3426C129.594 39.3426 129.773 39.2897 129.941 39.1839C130.108 39.0676 130.254 38.9354 130.38 38.7874C130.514 38.6288 130.627 38.4966 130.719 38.3909C130.811 38.2745 130.874 38.2164 130.907 38.2164C131.024 38.2164 131.083 38.2798 131.083 38.4067C131.083 38.7028 131.078 38.9513 131.07 39.1522C131.062 39.3426 131.058 39.5699 131.058 39.8343H131.083Z" fill="#6D6D6D"/>
<path d="M149.767 41.8328C149.332 41.8751 148.809 41.891 148.198 41.8804C147.587 41.8698 146.881 41.8963 146.077 41.9597C146.077 42.4567 146.149 42.8797 146.291 43.2287C146.433 43.567 146.617 43.842 146.843 44.0535C147.069 44.265 147.311 44.4183 147.571 44.5135C147.838 44.6086 148.094 44.6562 148.336 44.6562C148.679 44.6562 148.955 44.6139 149.164 44.5293C149.382 44.4447 149.549 44.3495 149.666 44.2438C149.792 44.1381 149.888 44.0429 149.955 43.9583C150.022 43.8737 150.085 43.8314 150.143 43.8314C150.235 43.8314 150.281 43.8948 150.281 44.0217C150.281 44.0852 150.239 44.2227 150.156 44.4341C150.08 44.6456 149.955 44.873 149.779 45.1162C149.612 45.3594 149.382 45.5709 149.089 45.7507C148.796 45.9198 148.437 46.0044 148.01 46.0044C147.508 46.0044 147.06 45.8405 146.667 45.5127C146.274 45.1744 145.965 44.7408 145.739 44.2121C145.513 43.6834 145.4 43.1282 145.4 42.5466C145.4 41.9439 145.484 41.4046 145.651 40.9287C145.827 40.4423 146.052 40.0352 146.328 39.7074C146.613 39.369 146.922 39.1152 147.257 38.946C147.592 38.7663 147.926 38.6764 148.261 38.6764C148.621 38.6764 148.943 38.7874 149.227 39.0095C149.52 39.2315 149.754 39.5435 149.93 39.9453C150.105 40.3366 150.193 40.8071 150.193 41.357C150.193 41.5262 150.164 41.6425 150.105 41.7059C150.047 41.7694 149.934 41.8117 149.767 41.8328ZM147.922 39.5329C147.671 39.5329 147.416 39.6069 147.157 39.755C146.906 39.8924 146.684 40.1039 146.492 40.3894C146.308 40.6749 146.182 41.0345 146.115 41.468C146.408 41.4257 146.722 41.3887 147.056 41.357C147.391 41.3253 147.709 41.2935 148.01 41.2618C148.311 41.2301 148.545 41.1984 148.713 41.1666C148.863 41.1455 148.968 41.1138 149.026 41.0715C149.093 41.0292 149.127 40.9604 149.127 40.8653C149.127 40.5057 149.01 40.1938 148.775 39.9294C148.549 39.6651 148.265 39.5329 147.922 39.5329Z" fill="#6D6D6D"/>
</svg>
