<svg width="71" height="171" viewBox="0 0 71 171" fill="none" xmlns="http://www.w3.org/2000/svg">
<path d="M0.000163238 165.646C0.000163238 168.603 2.39732 171 5.35437 171C8.31142 171 10.7086 168.603 10.7086 165.646C10.7086 162.689 8.31142 160.292 5.35437 160.292C2.39732 160.292 0.000163238 162.689 0.000163238 165.646ZM5.35437 1.00391V0H4.35046V1.00391H5.35437ZM6.35829 165.646V163.686H4.35046V165.646H6.35829ZM6.35829 159.766V155.846H4.35046V159.766H6.35829ZM6.35829 151.926V148.006H4.35046V151.926H6.35829ZM6.35829 144.086V140.166H4.35046V144.086H6.35829ZM6.35829 136.246V132.325H4.35046V136.246H6.35829ZM6.35829 128.405V124.485H4.35046V128.405H6.35829ZM6.35829 120.565V116.645H4.35046V120.565H6.35829ZM6.35829 112.725V108.805H4.35046V112.725H6.35829ZM6.35829 104.885V100.965H4.35046V104.885H6.35829ZM6.35829 97.0451V93.125H4.35046V97.0451H6.35829ZM6.35829 89.205V85.2849H4.35046V89.205H6.35829ZM6.35829 81.3649V77.4448H4.35046V81.3649H6.35829ZM6.35829 73.5248V69.6047H4.35046V73.5248H6.35829ZM6.35829 65.6847V61.7646H4.35046V65.6847H6.35829ZM6.35829 57.8446V53.9245H4.35046V57.8446H6.35829ZM6.35829 50.0045V46.0844H4.35046V50.0045H6.35829ZM6.35829 42.1644V38.2444H4.35046V42.1644H6.35829ZM6.35829 34.3243V30.4043H4.35046V34.3243H6.35829ZM6.35829 26.4842V22.5642H4.35046V26.4842H6.35829ZM6.35829 18.6442V14.7241H4.35046V18.6442H6.35829ZM6.35829 10.8041V6.88403H4.35046V10.8041H6.35829ZM6.35829 2.964V1.00391H4.35046V2.964H6.35829ZM5.35437 2.00783H7.39357V0H5.35437V2.00783ZM11.472 2.00783H15.5504V0H11.472V2.00783ZM19.6288 2.00783H23.7072V0H19.6288V2.00783ZM27.7856 2.00783H31.864V0H27.7856V2.00783ZM35.9424 2.00783H40.0208V0H35.9424V2.00783ZM44.0992 2.00783H48.1776V0H44.0992V2.00783ZM52.256 2.00783H56.3344V0H52.256V2.00783ZM60.4128 2.00783H64.4912V0H60.4128V2.00783ZM68.5696 2.00783H70.6088V0H68.5696V2.00783Z" fill="white"/>
</svg>
