<svg width="71" height="171" viewBox="0 0 71 171" fill="none" xmlns="http://www.w3.org/2000/svg">
<path d="M0.666667 165C0.666667 167.946 3.05448 170.333 6 170.333C8.94552 170.333 11.3333 167.946 11.3333 165C11.3333 162.054 8.94552 159.667 6 159.667C3.05448 159.667 0.666667 162.054 0.666667 165ZM6 1V0H5V1H6ZM7 165V163.048H5V165H7ZM7 159.143V155.238H5V159.143H7ZM7 151.333V147.429H5V151.333H7ZM7 143.524V139.619H5V143.524H7ZM7 135.714V131.81H5V135.714H7ZM7 127.905V124H5V127.905H7ZM7 120.095V116.19H5V120.095H7ZM7 112.286V108.381H5V112.286H7ZM7 104.476V100.571H5V104.476H7ZM7 96.6667V92.7619H5V96.6667H7ZM7 88.8571V84.9524H5V88.8571H7ZM7 81.0476V77.1429H5V81.0476H7ZM7 73.2381V69.3333H5V73.2381H7ZM7 65.4286V61.5238H5V65.4286H7ZM7 57.619V53.7143H5V57.619H7ZM7 49.8095V45.9048H5V49.8095H7ZM7 42V38.0952H5V42H7ZM7 34.1905V30.2857H5V34.1905H7ZM7 26.381V22.4762H5V26.381H7ZM7 18.5715V14.6667H5V18.5715H7ZM7 10.7619V6.85719H5V10.7619H7ZM7 2.95244V1H5V2.95244H7ZM6 2H8.03125V0H6V2ZM12.0938 2H16.1562V0H12.0938V2ZM20.2188 2H24.2812V0H20.2188V2ZM28.3438 2H32.4062V0H28.3438V2ZM36.4688 2H40.5312V0H36.4688V2ZM44.5938 2H48.6562V0H44.5938V2ZM52.7188 2H56.7812V0H52.7188V2ZM60.8438 2H64.9062V0H60.8438V2ZM68.9688 2H71V0H68.9688V2Z" fill="white"/>
</svg>
