<svg width="126" height="123" viewBox="0 0 126 123" fill="none" xmlns="http://www.w3.org/2000/svg">
<path d="M120.5 1H121.5V0H120.5V1ZM115.167 117.5C115.167 120.446 117.554 122.833 120.5 122.833C123.446 122.833 125.833 120.446 125.833 117.5C125.833 114.554 123.446 112.167 120.5 112.167C117.554 112.167 115.167 114.554 115.167 117.5ZM0.5 2H2.5V0H0.5V2ZM6.5 2H10.5V0H6.5V2ZM14.5 2H18.5V0H14.5V2ZM22.5 2H26.5V0H22.5V2ZM30.5 2H34.5V0H30.5V2ZM38.5 2H42.5V0H38.5V2ZM46.5 2H50.5V0H46.5V2ZM54.5 2H58.5V0H54.5V2ZM62.5 2H66.5V0H62.5V2ZM70.5 2H74.5V0H70.5V2ZM78.5 2H82.5V0H78.5V2ZM86.5 2H90.5V0H86.5V2ZM94.5 2H98.5V0H94.5V2ZM102.5 2H106.5V0H102.5V2ZM110.5 2H114.5V0H110.5V2ZM118.5 2H120.5V0H118.5V2ZM119.5 1V2.94167H121.5V1H119.5ZM119.5 6.825V10.7083H121.5V6.825H119.5ZM119.5 14.5917V18.475H121.5V14.5917H119.5ZM119.5 22.3583V26.2417H121.5V22.3583H119.5ZM119.5 30.125V34.0083H121.5V30.125H119.5ZM119.5 37.8917V41.775H121.5V37.8917H119.5ZM119.5 45.6583V49.5417H121.5V45.6583H119.5ZM119.5 53.425V57.3083H121.5V53.425H119.5ZM119.5 61.1917V65.075H121.5V61.1917H119.5ZM119.5 68.9583V72.8417H121.5V68.9583H119.5ZM119.5 76.725V80.6083H121.5V76.725H119.5ZM119.5 84.4917V88.375H121.5V84.4917H119.5ZM119.5 92.2583V96.1417H121.5V92.2583H119.5ZM119.5 100.025V103.908H121.5V100.025H119.5ZM119.5 107.792V111.675H121.5V107.792H119.5ZM119.5 115.558V117.5H121.5V115.558H119.5Z" fill="white"/>
</svg>
