<svg width="107" height="95" viewBox="0 0 107 95" fill="none" xmlns="http://www.w3.org/2000/svg">
<path d="M0.666667 6C0.666667 8.94552 3.05448 11.3333 6 11.3333C8.94552 11.3333 11.3333 8.94552 11.3333 6C11.3333 3.05448 8.94552 0.666667 6 0.666667C3.05448 0.666667 0.666667 3.05448 0.666667 6ZM105.5 6H106.5V5H105.5V6ZM6 7H8.07292V5H6V7ZM12.2188 7H16.3646V5H12.2188V7ZM20.5104 7H24.6563V5H20.5104V7ZM28.8021 7H32.9479V5H28.8021V7ZM37.0938 7H41.2396V5H37.0938V7ZM45.3854 7H49.5312V5H45.3854V7ZM53.6771 7H57.8229V5H53.6771V7ZM61.9687 7H66.1146V5H61.9687V7ZM70.2604 7H74.4062V5H70.2604V7ZM78.5521 7H82.6979V5H78.5521V7ZM86.8438 7H90.9896V5H86.8438V7ZM95.1354 7H99.2813V5H95.1354V7ZM103.427 7H105.5V5H103.427V7ZM104.5 6V8.02273H106.5V6H104.5ZM104.5 12.0682V16.1136H106.5V12.0682H104.5ZM104.5 20.1591V24.2045H106.5V20.1591H104.5ZM104.5 28.25V32.2955H106.5V28.25H104.5ZM104.5 36.3409V40.3864H106.5V36.3409H104.5ZM104.5 44.4318V48.4773H106.5V44.4318H104.5ZM104.5 52.5227V56.5682H106.5V52.5227H104.5ZM104.5 60.6136V64.6591H106.5V60.6136H104.5ZM104.5 68.7045V72.75H106.5V68.7045H104.5ZM104.5 76.7955V80.8409H106.5V76.7955H104.5ZM104.5 84.8864V88.9318H106.5V84.8864H104.5ZM104.5 92.9773V95H106.5V92.9773H104.5Z" fill="white"/>
</svg>
