<svg width="110" height="12" viewBox="0 0 110 12" fill="none" xmlns="http://www.w3.org/2000/svg">
<path d="M109.333 6C109.333 3.05448 106.946 0.666667 104 0.666667C101.054 0.666667 98.6667 3.05448 98.6667 6C98.6667 8.94552 101.054 11.3333 104 11.3333C106.946 11.3333 109.333 8.94552 109.333 6ZM104 5H102V7H104V5ZM98 5H94V7L98 7V5ZM90 5H86V7H90V5ZM82 5L78 5V7L82 7V5ZM74 5L70 5V7L74 7V5ZM66 5L62 5V7L66 7V5ZM58 5L54 5V7L58 7V5ZM50 5H46V7H50V5ZM42 5L38 5V7L42 7V5ZM34 5H30V7H34V5ZM26 5H22V7H26V5ZM18 5H14V7H18V5ZM10 5L6 5V7L10 7V5ZM2 5H0V7H2V5Z" fill="white"/>
</svg>
