<svg width="106" height="95" viewBox="0 0 106 95" fill="none" xmlns="http://www.w3.org/2000/svg">
<path d="M0.000162857 5.34164C0.000162857 8.2918 2.39173 10.6834 5.34189 10.6834C8.29204 10.6834 10.6836 8.2918 10.6836 5.34164C10.6836 2.39149 8.29204 -8.16674e-05 5.34189 -8.16674e-05C2.39173 -8.16674e-05 0.000162857 2.39149 0.000162857 5.34164ZM104.998 5.34164H106V4.34007H104.998V5.34164ZM5.34189 6.34322H7.41807V4.34007H5.34189V6.34322ZM11.5704 6.34322H15.7228V4.34007H11.5704V6.34322ZM19.8751 6.34322H24.0275V4.34007H19.8751V6.34322ZM28.1798 6.34322H32.3322V4.34007H28.1798V6.34322ZM36.4846 6.34322H40.6369V4.34007H36.4846V6.34322ZM44.7893 6.34322H48.9416V4.34007H44.7893V6.34322ZM53.094 6.34322H57.2463V4.34007H53.094V6.34322ZM61.3987 6.34322H65.551V4.34007H61.3987V6.34322ZM69.7034 6.34322H73.8558V4.34007H69.7034V6.34322ZM78.0081 6.34322H82.1605V4.34007H78.0081V6.34322ZM86.3128 6.34322H90.4652V4.34007H86.3128V6.34322ZM94.6175 6.34322H98.7699V4.34007H94.6175V6.34322ZM102.922 6.34322H104.998V4.34007H102.922V6.34322ZM103.997 5.34164V7.36755H106V5.34164H103.997ZM103.997 11.4194V15.4712H106V11.4194H103.997ZM103.997 19.523V23.5748H106V19.523H103.997ZM103.997 27.6266V31.6785H106V27.6266H103.997ZM103.997 35.7303V39.7821H106V35.7303H103.997ZM103.997 43.8339V47.8857H106V43.8339H103.997ZM103.997 51.9376V55.9894H106V51.9376H103.997ZM103.997 60.0412V64.093H106V60.0412H103.997ZM103.997 68.1448V72.1967H106V68.1448H103.997ZM103.997 76.2485V80.3003H106V76.2485H103.997ZM103.997 84.3521V88.4039H106V84.3521H103.997ZM103.997 92.4558V94.4817H106V92.4558H103.997Z" fill="white"/>
</svg>
