<svg width="225" height="47" viewBox="0 0 225 47" fill="none" xmlns="http://www.w3.org/2000/svg">
<path d="M16.2995 26.1302C15.8923 24.4776 15.4636 22.825 15.0135 21.1724C14.5634 19.5198 14.1133 17.84 13.6632 16.1333H7.84429C7.13701 18.9779 6.4619 21.8632 5.81893 24.7891C5.7332 25.2226 5.66889 25.6019 5.62603 25.927C5.58316 26.2521 5.56174 26.523 5.56174 26.7398C5.56174 27.1461 5.62604 27.3493 5.75464 27.3493H8.06935C8.19795 27.3493 8.28368 27.4306 8.32654 27.5932C8.39084 27.7286 8.42296 27.8641 8.42296 27.9995C8.42296 28.1079 8.39084 28.2569 8.32654 28.4465C8.28368 28.6091 8.17652 28.6904 8.00506 28.6904C7.66214 28.6904 7.23346 28.6904 6.71908 28.6904C6.2047 28.6633 5.69032 28.6497 5.17594 28.6497C4.66155 28.6497 4.22221 28.6497 3.85785 28.6497C3.23631 28.6497 2.63617 28.6633 2.05749 28.6904C1.47881 28.7446 0.889432 28.7717 0.28932 28.7717C0.0964263 28.7717 0 28.5414 0 28.0808C0 27.6202 0.0964263 27.39 0.28932 27.39H1.89678C2.3683 27.39 2.72191 27.0919 2.95767 26.4959C3.57922 24.8162 4.13648 23.1636 4.62943 21.5381C5.12238 19.9126 5.6153 18.2193 6.10825 16.4584C6.6012 14.6974 7.1263 12.828 7.68355 10.8503C8.26223 8.87261 8.92664 6.70526 9.67678 4.34826C9.74108 4.13152 9.80538 3.92833 9.86968 3.73869C9.93398 3.52195 9.96613 3.33231 9.96613 3.16976C9.96613 2.92593 9.92325 2.72274 9.83752 2.56019C9.75179 2.39764 9.70891 2.26218 9.70891 2.15381C9.70891 1.93707 9.8161 1.82871 10.0304 1.82871C10.4805 1.82871 10.8234 1.73388 11.0592 1.54424C11.2949 1.3546 11.4664 1.15141 11.5736 0.934672C11.6807 0.690845 11.7772 0.474109 11.8629 0.284464C11.9486 0.0948215 12.0665 0 12.2165 0C12.3023 0 12.3773 0.13546 12.4416 0.40638C12.5059 0.650207 12.5809 0.921126 12.6666 1.21914L19.1286 23.2855C19.6001 24.8569 19.9644 25.927 20.2216 26.4959C20.4788 27.0649 20.6824 27.3493 20.8324 27.3493H21.9898C22.2041 27.3493 22.3113 27.5525 22.3113 27.9589C22.3113 28.1485 22.2899 28.3246 22.247 28.4872C22.2256 28.6226 22.1613 28.6904 22.0541 28.6904C21.2182 28.6904 20.4681 28.6904 19.8037 28.6904C19.1607 28.6633 18.5499 28.6497 17.9712 28.6497C17.414 28.6497 16.7495 28.6633 15.978 28.6904C15.2278 28.7446 14.5313 28.7717 13.8883 28.7717C13.6954 28.7717 13.599 28.5278 13.599 28.0402C13.599 27.6067 13.6954 27.39 13.8883 27.39H15.7208C16.3209 27.39 16.5138 26.97 16.2995 26.1302ZM10.7699 5.5674C10.3198 7.05746 9.8911 8.54751 9.48388 10.0376C9.07666 11.5005 8.66947 12.9906 8.26225 14.5077H13.2132C12.8488 13.0719 12.463 11.6224 12.0558 10.1595C11.67 8.66942 11.2842 7.13873 10.8984 5.5674H10.7699Z" fill="#686868"/>
<path d="M50.9562 27.0649H52.8208C54.2997 27.0649 55.6928 26.9159 57.0002 26.6178C58.3076 26.3198 59.272 25.8999 59.8936 25.3581L60.1186 23.123C60.1401 23.0146 60.2044 22.9333 60.3115 22.8792C60.4401 22.825 60.5795 22.7979 60.7295 22.7979C61.051 22.7979 61.201 22.9062 61.1795 23.123C61.0724 24.1254 60.9974 25.1955 60.9545 26.3334C60.9116 27.4712 60.8902 28.5549 60.8902 29.5844C60.8902 29.774 60.7295 29.8689 60.408 29.8689C60.2794 29.8689 60.1615 29.8418 60.0544 29.7876C59.9472 29.7605 59.8936 29.6928 59.8936 29.5844V28.6904H49.4452C48.545 28.6904 47.827 28.6904 47.2912 28.6904C46.7554 28.7175 46.316 28.731 45.9731 28.731C45.6302 28.7581 45.2873 28.7717 44.9444 28.7717C44.8586 28.7717 44.7944 28.7039 44.7515 28.5685C44.7086 28.433 44.6872 28.284 44.6872 28.1214C44.6872 27.9318 44.7086 27.7692 44.7515 27.6338C44.7944 27.4712 44.8586 27.39 44.9444 27.39H46.3268C46.884 27.39 47.2377 27.2545 47.3877 26.9836C47.5591 26.7127 47.6449 26.225 47.6449 25.5206V6.25824C47.6449 5.20165 47.602 4.42953 47.5163 3.94188C47.452 3.42713 47.3662 3.08848 47.2591 2.92593C47.1733 2.76338 47.0769 2.6821 46.9697 2.6821H45.1051C44.9336 2.6821 44.8479 2.42473 44.8479 1.90998C44.8479 1.77452 44.8586 1.65261 44.8801 1.54424C44.9229 1.40878 44.9979 1.34105 45.1051 1.34105C45.7909 1.34105 46.4768 1.3546 47.1626 1.38169C47.8485 1.38169 48.5129 1.38169 49.1559 1.38169C50.0775 1.38169 50.7954 1.38169 51.3098 1.38169C51.8456 1.3546 52.285 1.32751 52.628 1.30041C52.9709 1.27332 53.3138 1.25978 53.6567 1.25978C53.7639 1.25978 53.8282 1.32751 53.8496 1.46297C53.8925 1.59843 53.9139 1.74743 53.9139 1.90998C53.9139 2.09963 53.8925 2.27573 53.8496 2.43828C53.8068 2.57374 53.7424 2.64146 53.6567 2.64146H52.2743C51.7385 2.64146 51.3848 2.77692 51.2134 3.04784C51.0419 3.31876 50.9562 3.80642 50.9562 4.51081V27.0649Z" fill="#686868"/>
<path d="M90.3574 23.7732C90.3574 24.8027 90.3896 25.5748 90.4539 26.0895C90.5396 26.6043 90.6361 26.9429 90.7432 27.1055C90.8504 27.268 90.9468 27.3493 91.0325 27.3493H92.8972C93.0044 27.3493 93.0794 27.4306 93.1222 27.5932C93.1865 27.7557 93.2186 27.9318 93.2186 28.1214C93.2186 28.5007 93.1115 28.6904 92.8972 28.6904H91.5148C91.3004 28.6904 91.0754 28.6904 90.8396 28.6904C90.6039 28.6633 90.3682 28.6497 90.1324 28.6497H88.8464C87.9463 28.6497 87.2283 28.6633 86.6925 28.6904C86.1567 28.6904 85.7172 28.7039 85.3743 28.731C85.0314 28.7581 84.6885 28.7717 84.3456 28.7717C84.2599 28.7717 84.1955 28.7039 84.1527 28.5685C84.1098 28.433 84.0884 28.284 84.0884 28.1214C84.0884 27.9318 84.1098 27.7692 84.1527 27.6338C84.1955 27.4712 84.2599 27.39 84.3456 27.39H85.728C86.2852 27.39 86.6389 27.2545 86.7889 26.9836C86.9604 26.7127 87.0461 26.225 87.0461 25.5206V6.25824C87.0461 5.20165 87.0032 4.42953 86.9175 3.94188C86.8532 3.42713 86.7675 3.08848 86.6603 2.92593C86.5746 2.76338 86.4781 2.6821 86.3709 2.6821H84.5063C84.3348 2.6821 84.2491 2.42473 84.2491 1.90998C84.2491 1.77452 84.2598 1.65261 84.2813 1.54424C84.3241 1.40878 84.3991 1.34105 84.5063 1.34105C85.385 1.34105 86.1566 1.3546 86.821 1.38169C87.5069 1.40878 88.0856 1.42233 88.5571 1.42233H92.2542C94.2689 1.42233 95.8978 1.76098 97.1408 2.43828C98.3839 3.11558 99.2948 4.00961 99.8735 5.12038C100.474 6.20406 100.774 7.35547 100.774 8.5746C100.774 9.82083 100.484 11.0264 99.9056 12.1914C99.3483 13.3563 98.5447 14.3181 97.4945 15.0767C96.4657 15.8352 95.2334 16.2145 93.7974 16.2145C93.283 16.2145 92.7365 16.1468 92.1578 16.0113C91.5791 15.8488 90.979 15.5914 90.3574 15.2392V23.7732ZM97.3016 8.89971C97.3016 7.9244 97.098 6.98972 96.6908 6.09569C96.2836 5.20165 95.6513 4.47017 94.794 3.90124C93.9367 3.33231 92.8436 3.04784 91.5148 3.04784C91.1075 3.04784 90.8075 3.1833 90.6146 3.45422C90.4431 3.69805 90.3574 4.1857 90.3574 4.91719V13.9388C90.9361 14.1014 91.504 14.1826 92.0613 14.1826C93.2187 14.1826 94.1831 13.9388 94.9547 13.4512C95.7263 12.9364 96.305 12.2862 96.6908 11.5005C97.098 10.6878 97.3016 9.82083 97.3016 8.89971Z" fill="#686868"/>
<path d="M130.387 23.7732C130.387 24.8027 130.419 25.5748 130.483 26.0895C130.569 26.6043 130.665 26.9429 130.772 27.1055C130.879 27.268 130.976 27.3493 131.062 27.3493H132.926C133.098 27.3493 133.184 27.6067 133.184 28.1214C133.184 28.2298 133.162 28.3517 133.119 28.4872C133.098 28.6226 133.034 28.6904 132.926 28.6904C132.262 28.6904 131.576 28.6904 130.869 28.6904C130.183 28.6633 129.518 28.6497 128.876 28.6497C127.975 28.6497 127.257 28.6633 126.722 28.6904C126.186 28.6904 125.746 28.7039 125.403 28.731C125.061 28.7581 124.718 28.7717 124.375 28.7717C124.289 28.7717 124.225 28.7039 124.182 28.5685C124.139 28.433 124.118 28.284 124.118 28.1214C124.118 27.9318 124.139 27.7692 124.182 27.6338C124.225 27.4712 124.289 27.39 124.375 27.39H125.757C126.314 27.39 126.668 27.2545 126.818 26.9836C126.99 26.7127 127.075 26.225 127.075 25.5206V6.25824C127.075 5.20165 127.032 4.42953 126.947 3.94188C126.882 3.42713 126.797 3.08848 126.689 2.92593C126.604 2.76338 126.507 2.6821 126.4 2.6821H124.535C124.364 2.6821 124.278 2.42473 124.278 1.90998C124.278 1.77452 124.289 1.65261 124.31 1.54424C124.353 1.40878 124.428 1.34105 124.535 1.34105C125.221 1.34105 125.907 1.3546 126.593 1.38169C127.279 1.38169 127.943 1.38169 128.586 1.38169C129.508 1.38169 130.226 1.38169 130.74 1.38169C131.276 1.3546 131.715 1.32751 132.058 1.30041C132.401 1.27332 132.744 1.25978 133.087 1.25978C133.194 1.25978 133.259 1.32751 133.28 1.46297C133.323 1.59843 133.344 1.74743 133.344 1.90998C133.344 2.09963 133.323 2.27573 133.28 2.43828C133.237 2.57374 133.173 2.64146 133.087 2.64146H131.705C131.169 2.64146 130.815 2.77692 130.644 3.04784C130.472 3.31876 130.387 3.80642 130.387 4.51081V23.7732Z" fill="#686868"/>
<path d="M176.463 29.178C176.463 29.178 176.227 28.8258 175.756 28.1214C175.284 27.4171 174.641 26.4553 173.827 25.2361C173.034 24.017 172.123 22.6353 171.094 21.0911C170.066 19.5468 168.994 17.9349 167.879 16.2552C166.786 14.5755 165.704 12.9229 164.632 11.2973C163.561 9.67183 162.575 8.16822 161.675 6.78653H161.546C161.589 10.6878 161.621 14.1149 161.643 17.0679C161.664 20.021 161.696 22.4592 161.739 24.3828C161.76 25.0871 161.825 25.7644 161.932 26.4147C162.039 27.0378 162.2 27.3493 162.414 27.3493H164.182C164.289 27.3493 164.364 27.4306 164.407 27.5932C164.45 27.7286 164.472 27.8912 164.472 28.0808C164.472 28.4872 164.375 28.6904 164.182 28.6904C163.389 28.6904 162.736 28.6904 162.221 28.6904C161.707 28.6633 161.225 28.6497 160.775 28.6497C160.046 28.6497 159.339 28.6633 158.653 28.6904C157.967 28.7446 157.399 28.7717 156.949 28.7717C156.863 28.7717 156.799 28.7039 156.756 28.5685C156.734 28.4059 156.724 28.2434 156.724 28.0808C156.724 27.9183 156.734 27.7692 156.756 27.6338C156.799 27.4712 156.863 27.39 156.949 27.39H158.01C158.481 27.39 158.824 27.3222 159.038 27.1868C159.274 27.0242 159.403 26.7262 159.424 26.2927C159.531 24.911 159.617 23.2991 159.681 21.4568C159.767 19.6146 159.831 17.6775 159.874 15.6456C159.939 13.6137 159.982 11.636 160.003 9.71246C160.046 7.76184 160.067 6.00087 160.067 4.42953L159.842 4.10443C159.585 3.69805 159.339 3.40004 159.103 3.2104C158.888 2.99366 158.61 2.84465 158.267 2.76338C157.945 2.6821 157.474 2.64146 156.852 2.64146C156.788 2.64146 156.734 2.58728 156.692 2.47891C156.67 2.34346 156.659 2.20799 156.659 2.07253C156.659 1.90998 156.67 1.74743 156.692 1.58488C156.734 1.42233 156.788 1.34105 156.852 1.34105C157.131 1.34105 157.517 1.3546 158.01 1.38169C158.524 1.38169 159.071 1.38169 159.649 1.38169C160.249 1.38169 160.817 1.39524 161.353 1.42233C161.889 1.42233 162.328 1.42233 162.671 1.42233C162.671 1.42233 162.875 1.76098 163.282 2.43828C163.711 3.08848 164.268 3.96897 164.954 5.07974C165.661 6.19051 166.443 7.43674 167.301 8.81843C168.179 10.173 169.069 11.5683 169.969 13.0041C170.869 14.44 171.727 15.8217 172.541 17.1492C173.355 18.4496 174.063 19.5875 174.663 20.5628C175.284 21.5381 175.724 22.256 175.981 22.7166H176.11C176.088 20.197 176.067 17.7859 176.045 15.483C176.024 13.1802 175.992 11.0806 175.949 9.18417C175.906 7.26064 175.842 5.63513 175.756 4.30762C175.692 3.22394 175.456 2.6821 175.049 2.6821H173.505C173.42 2.6821 173.345 2.62792 173.28 2.51955C173.238 2.38409 173.216 2.24863 173.216 2.11317C173.216 1.95062 173.238 1.78807 173.28 1.62552C173.345 1.43587 173.42 1.34105 173.505 1.34105C173.977 1.34105 174.545 1.3546 175.209 1.38169C175.874 1.40878 176.474 1.42233 177.01 1.42233C177.61 1.42233 178.253 1.40878 178.939 1.38169C179.625 1.32751 180.246 1.30041 180.803 1.30041C180.889 1.30041 180.953 1.39523 180.996 1.58488C181.06 1.77452 181.093 1.95062 181.093 2.11317C181.093 2.46537 180.996 2.64146 180.803 2.64146H179.292C178.842 2.64146 178.553 2.77692 178.424 3.04784C178.317 3.31876 178.231 3.79287 178.167 4.47017C178.103 5.22875 178.038 6.44788 177.974 8.12758C177.91 9.78019 177.856 11.7444 177.813 14.0201C177.771 16.2687 177.728 18.6934 177.685 21.2943C177.663 23.8951 177.653 26.523 177.653 29.178C177.61 29.3677 177.438 29.4625 177.138 29.4625C176.838 29.4625 176.613 29.3677 176.463 29.178Z" fill="#686868"/>
<path d="M218.988 26.1302C218.581 24.4776 218.152 22.825 217.702 21.1724C217.252 19.5198 216.802 17.84 216.352 16.1333H210.533C209.826 18.9779 209.151 21.8632 208.508 24.7891C208.422 25.2226 208.358 25.6019 208.315 25.927C208.272 26.2521 208.25 26.523 208.25 26.7398C208.25 27.1461 208.315 27.3493 208.443 27.3493H210.758C210.887 27.3493 210.972 27.4306 211.015 27.5932C211.079 27.7286 211.112 27.8641 211.112 27.9995C211.112 28.1079 211.079 28.2569 211.015 28.4465C210.972 28.6091 210.865 28.6904 210.694 28.6904C210.351 28.6904 209.922 28.6904 209.408 28.6904C208.893 28.6633 208.379 28.6497 207.865 28.6497C207.35 28.6497 206.911 28.6497 206.546 28.6497C205.925 28.6497 205.325 28.6633 204.746 28.6904C204.168 28.7446 203.578 28.7717 202.978 28.7717C202.785 28.7717 202.689 28.5414 202.689 28.0808C202.689 27.6202 202.785 27.39 202.978 27.39H204.585C205.057 27.39 205.411 27.0919 205.646 26.4959C206.268 24.8162 206.825 23.1636 207.318 21.5381C207.811 19.9126 208.304 18.2193 208.797 16.4584C209.29 14.6974 209.815 12.828 210.372 10.8503C210.951 8.87261 211.615 6.70526 212.365 4.34826C212.43 4.13152 212.494 3.92833 212.558 3.73869C212.623 3.52195 212.655 3.33231 212.655 3.16976C212.655 2.92593 212.612 2.72274 212.526 2.56019C212.44 2.39764 212.398 2.26218 212.398 2.15381C212.398 1.93707 212.505 1.82871 212.719 1.82871C213.169 1.82871 213.512 1.73388 213.748 1.54424C213.984 1.3546 214.155 1.15141 214.262 0.934672C214.369 0.690845 214.466 0.474109 214.552 0.284464C214.637 0.0948215 214.755 0 214.905 0C214.991 0 215.066 0.13546 215.13 0.40638C215.195 0.650207 215.27 0.921126 215.355 1.21914L221.817 23.2855C222.289 24.8569 222.653 25.927 222.91 26.4959C223.167 27.0649 223.371 27.3493 223.521 27.3493H224.678C224.893 27.3493 225 27.5525 225 27.9589C225 28.1485 224.979 28.3246 224.936 28.4872C224.914 28.6226 224.85 28.6904 224.743 28.6904C223.907 28.6904 223.157 28.6904 222.492 28.6904C221.849 28.6633 221.239 28.6497 220.66 28.6497C220.103 28.6497 219.438 28.6633 218.667 28.6904C217.916 28.7446 217.22 28.7717 216.577 28.7717C216.384 28.7717 216.288 28.5278 216.288 28.0402C216.288 27.6067 216.384 27.39 216.577 27.39H218.409C219.01 27.39 219.202 26.97 218.988 26.1302ZM213.458 5.5674C213.008 7.05746 212.58 8.54751 212.173 10.0376C211.765 11.5005 211.358 12.9906 210.951 14.5077H215.902C215.537 13.0719 215.152 11.6224 214.744 10.1595C214.359 8.66942 213.973 7.13873 213.587 5.5674H213.458Z" fill="#686868"/>
<path d="M65.5801 39.2943C65.488 39.2943 65.421 39.342 65.3791 39.4372C65.2703 39.6594 65.1363 40.0034 64.9773 40.469C64.8266 40.9241 64.6633 41.4374 64.4875 42.0088C64.3117 42.5697 64.14 43.1306 63.9726 43.6915C63.8135 44.2418 63.6754 44.7339 63.5582 45.1678C63.441 45.5911 63.3614 45.8874 63.3196 46.0567C63.2861 46.152 63.2024 46.1996 63.0684 46.1996C62.9428 46.1996 62.8633 46.1467 62.8298 46.0409C62.7712 45.7551 62.6624 45.3583 62.5033 44.8503C62.3526 44.3423 62.1726 43.7867 61.9633 43.1835C61.754 42.5803 61.5447 41.9929 61.3354 41.4215C61.1261 40.8394 60.9419 40.3367 60.7828 39.9134C60.6824 39.6489 60.5903 39.4848 60.5065 39.4213C60.4228 39.3473 60.2931 39.3102 60.1172 39.3102C60.067 39.3102 60.0419 39.2467 60.0419 39.1197C60.0419 39.0668 60.0503 39.0139 60.067 38.961C60.0754 38.9081 60.0921 38.8816 60.1172 38.8816C60.3517 38.8816 60.5526 38.8869 60.7201 38.8975C60.8875 38.9081 61.0842 38.9134 61.3103 38.9134C61.4693 38.9134 61.6619 38.9081 61.8879 38.8975C62.1224 38.8869 62.3819 38.8816 62.6666 38.8816C62.7001 38.8816 62.721 38.9028 62.7294 38.9451C62.7377 38.9874 62.7419 39.0351 62.7419 39.088C62.7419 39.2255 62.7168 39.2943 62.6666 39.2943H62.0638C61.9717 39.2943 61.9256 39.342 61.9256 39.4372C61.9256 39.4795 61.9591 39.6171 62.0261 39.8499C62.0931 40.0827 62.181 40.3791 62.2898 40.7389C62.407 41.0987 62.5284 41.4903 62.654 41.9136C62.7796 42.3369 62.9052 42.7602 63.0307 43.1835C63.1563 43.6068 63.2652 43.9931 63.3573 44.3423C63.6503 43.1041 63.9182 42.0882 64.161 41.2945C64.4038 40.4902 64.5252 39.9346 64.5252 39.6277C64.5252 39.5007 64.5084 39.416 64.4749 39.3737C64.4498 39.3314 64.4163 39.3102 64.3744 39.3102H63.8596C63.7926 39.3102 63.7591 39.2467 63.7591 39.1197C63.7591 39.0668 63.7633 39.0139 63.7717 38.961C63.7884 38.9081 63.8094 38.8816 63.8345 38.8816C64.0438 38.8816 64.207 38.8869 64.3242 38.8975C64.4498 38.8975 64.5587 38.9028 64.6507 38.9134C64.7512 38.9134 64.8643 38.9134 64.9898 38.9134C65.1405 38.9134 65.2786 38.9081 65.4042 38.8975C65.5298 38.8869 65.6972 38.8816 65.9065 38.8816C65.94 38.8816 65.961 38.9028 65.9693 38.9451C65.9861 38.9874 65.9945 39.0351 65.9945 39.088C65.9945 39.2255 65.9651 39.2943 65.9065 39.2943H65.5801Z" fill="#686868"/>
<path d="M79.883 43.9613C79.883 44.3635 79.8956 44.6651 79.9207 44.8662C79.9458 45.0672 79.9793 45.1995 80.0212 45.263C80.063 45.3265 80.1049 45.3583 80.1467 45.3583H80.7621C80.7956 45.3583 80.8207 45.39 80.8374 45.4535C80.8542 45.517 80.8625 45.5752 80.8625 45.6281C80.8625 45.6705 80.8542 45.7181 80.8374 45.771C80.8291 45.8133 80.8123 45.8345 80.7872 45.8345C80.5611 45.8345 80.377 45.8345 80.2346 45.8345C80.1007 45.8239 79.9751 45.8186 79.8579 45.8186C79.7407 45.8186 79.5942 45.8186 79.4184 45.8186C79.0584 45.8186 78.7863 45.8239 78.6021 45.8345C78.4179 45.8557 78.2044 45.8662 77.9616 45.8662C77.9365 45.8662 77.9155 45.8398 77.8988 45.7869C77.882 45.7234 77.8737 45.6705 77.8737 45.6281C77.8737 45.5752 77.8779 45.5223 77.8863 45.4694C77.903 45.4165 77.9198 45.39 77.9365 45.39H78.6649C78.7653 45.39 78.8156 45.3001 78.8156 45.1202V41.3897C78.8156 40.9347 78.7989 40.6013 78.7654 40.3897C78.7319 40.1674 78.6858 40.0245 78.6272 39.961C78.577 39.887 78.5225 39.8499 78.4639 39.8499H78.2127C78.1876 39.8499 78.1626 39.8235 78.1375 39.7706C78.1207 39.7071 78.1123 39.6489 78.1123 39.5959C78.1123 39.5642 78.1165 39.5219 78.1249 39.4689C78.1332 39.4054 78.1542 39.3737 78.1877 39.3737C78.3886 39.3737 78.5728 39.3208 78.7402 39.215C78.9076 39.0986 79.0584 38.9663 79.1923 38.8181C79.3263 38.6594 79.4393 38.5271 79.5313 38.4212C79.6234 38.3048 79.6946 38.2466 79.7449 38.2466C79.8704 38.2466 79.9332 38.3101 79.9332 38.4371C79.9332 38.5853 79.9291 38.7229 79.9207 38.8499C79.9207 38.9663 79.9165 39.1144 79.9081 39.2943C79.8997 39.4637 79.8914 39.6912 79.883 39.9769C79.883 40.2627 79.883 40.6436 79.883 41.1199V43.9613ZM79.3556 37.0243C79.1714 37.0243 79.0165 36.9449 78.8909 36.7862C78.7737 36.6169 78.7151 36.4158 78.7151 36.183C78.7151 35.9608 78.7779 35.7756 78.9034 35.6274C79.0374 35.4792 79.1881 35.4052 79.3556 35.4052C79.523 35.4052 79.6695 35.4845 79.7951 35.6433C79.9291 35.7914 79.996 35.9713 79.996 36.183C79.996 36.4158 79.9332 36.6169 79.8076 36.7862C79.6904 36.9449 79.5397 37.0243 79.3556 37.0243Z" fill="#686868"/>
<path d="M98.6726 43.5169C98.6726 43.8767 98.6809 44.1571 98.6977 44.3582C98.7228 44.5593 98.773 44.7021 98.8483 44.7868C98.9153 44.8503 99.0032 44.882 99.1121 44.882C99.1874 44.882 99.2628 44.8768 99.3382 44.8662C99.4135 44.845 99.4804 44.8344 99.539 44.8344C99.5641 44.8344 99.5851 44.8609 99.6018 44.9138C99.627 44.9667 99.6396 45.0196 99.6396 45.0725C99.6396 45.2101 99.6144 45.2895 99.5642 45.3107C99.2042 45.3847 98.9153 45.48 98.6977 45.5964C98.48 45.7128 98.3125 45.8133 98.1953 45.898C98.0865 45.9932 98.0028 46.0409 97.9442 46.0409C97.8521 46.0409 97.7851 45.9668 97.7433 45.8186C97.7014 45.6599 97.6721 45.4853 97.6553 45.2948C97.647 45.1043 97.6386 44.9561 97.6302 44.8503H97.6051C97.3958 45.1784 97.1153 45.4588 96.7637 45.6916C96.4205 45.9245 96.006 46.0409 95.5205 46.0409C94.7586 46.0409 94.16 45.7234 93.7247 45.0884C93.2977 44.4534 93.0842 43.6227 93.0842 42.5962C93.0842 41.8765 93.214 41.2257 93.4735 40.6436C93.7414 40.051 94.0972 39.5801 94.5409 39.2308C94.9846 38.871 95.4702 38.6911 95.9977 38.6911C96.4582 38.6911 96.8056 38.7758 97.04 38.9451C97.2828 39.1038 97.4711 39.252 97.6051 39.3896V36.564C97.6051 36.1089 97.5884 35.7756 97.5549 35.5639C97.5214 35.3417 97.4795 35.1988 97.4293 35.1353C97.3874 35.0612 97.3414 35.0242 97.2912 35.0242H96.726C96.7009 35.0242 96.6758 34.9977 96.6507 34.9448C96.6339 34.8813 96.6256 34.8231 96.6256 34.7702C96.6256 34.7384 96.6298 34.6961 96.6381 34.6432C96.6465 34.5797 96.6675 34.548 96.701 34.548C97.1531 34.548 97.5214 34.4739 97.806 34.3257C98.0991 34.1776 98.3293 34.0611 98.4968 33.9765C98.6223 33.9765 98.6851 34.04 98.6851 34.167C98.6851 34.3151 98.6851 34.585 98.6851 34.9766C98.6851 35.3575 98.6809 35.8179 98.6726 36.3576C98.6726 36.8973 98.6726 37.4688 98.6726 38.072C98.6726 38.6752 98.6726 39.2732 98.6726 39.8658V43.5169ZM97.6051 41.5008C97.5465 40.6542 97.3749 40.0722 97.0902 39.7547C96.8139 39.4266 96.4623 39.2626 96.0353 39.2626C95.6251 39.2626 95.2944 39.4213 95.0432 39.7388C94.7921 40.0563 94.6121 40.4531 94.5033 40.9294C94.3944 41.395 94.34 41.866 94.34 42.3422C94.34 42.8078 94.4154 43.2523 94.5661 43.6756C94.7168 44.0883 94.9344 44.427 95.2191 44.6916C95.5037 44.9455 95.847 45.0725 96.2488 45.0725C96.6423 45.0725 96.9354 44.9826 97.1279 44.8027C97.3289 44.6228 97.4879 44.4693 97.6051 44.3423V41.5008Z" fill="#686868"/>
<path d="M116.207 41.866C115.771 41.9083 115.248 41.9242 114.637 41.9136C114.026 41.903 113.318 41.9294 112.515 41.9929C112.515 42.4903 112.586 42.9136 112.728 43.2629C112.871 43.6015 113.055 43.8767 113.281 44.0883C113.507 44.3 113.75 44.4534 114.009 44.5487C114.277 44.6439 114.532 44.6916 114.775 44.6916C115.118 44.6916 115.395 44.6492 115.604 44.5646C115.822 44.4799 115.989 44.3847 116.106 44.2788C116.232 44.173 116.328 44.0778 116.395 43.9931C116.462 43.9084 116.525 43.8661 116.584 43.8661C116.676 43.8661 116.722 43.9296 116.722 44.0566C116.722 44.1201 116.68 44.2577 116.596 44.4693C116.521 44.681 116.395 44.9085 116.219 45.1519C116.052 45.3953 115.822 45.607 115.529 45.7869C115.236 45.9562 114.876 46.0409 114.449 46.0409C113.946 46.0409 113.498 45.8768 113.105 45.5488C112.711 45.2101 112.402 44.7762 112.176 44.2471C111.95 43.7179 111.837 43.1623 111.837 42.5803C111.837 41.9771 111.92 41.4373 112.088 40.9611C112.264 40.4743 112.49 40.0669 112.766 39.7388C113.05 39.4002 113.36 39.1462 113.695 38.9768C114.03 38.7969 114.365 38.707 114.7 38.707C115.06 38.707 115.382 38.8181 115.667 39.0403C115.96 39.2626 116.194 39.5748 116.37 39.9769C116.546 40.3685 116.634 40.8394 116.634 41.3897C116.634 41.559 116.604 41.6755 116.546 41.739C116.487 41.8025 116.374 41.8448 116.207 41.866ZM114.361 39.5642C114.11 39.5642 113.854 39.6383 113.595 39.7864C113.343 39.924 113.122 40.1357 112.929 40.4214C112.745 40.7071 112.619 41.067 112.552 41.5008C112.845 41.4585 113.159 41.4215 113.494 41.3897C113.829 41.358 114.147 41.3262 114.449 41.2945C114.75 41.2627 114.984 41.231 115.152 41.1992C115.303 41.1781 115.407 41.1463 115.466 41.104C115.533 41.0617 115.566 40.9929 115.566 40.8976C115.566 40.5378 115.449 40.2256 115.215 39.961C114.989 39.6965 114.704 39.5642 114.361 39.5642Z" fill="#686868"/>
<path d="M131.186 39.8658C131.287 39.7282 131.429 39.5695 131.613 39.3896C131.798 39.2097 132.007 39.0509 132.241 38.9134C132.476 38.7652 132.71 38.6911 132.945 38.6911C133.162 38.6911 133.321 38.7599 133.422 38.8975C133.531 39.0245 133.585 39.1779 133.585 39.3578C133.585 39.5272 133.535 39.7018 133.434 39.8817C133.342 40.0616 133.204 40.2045 133.02 40.3103C132.878 40.1515 132.727 40.0245 132.568 39.9293C132.417 39.8341 132.266 39.7864 132.116 39.7864C131.923 39.7864 131.747 39.8499 131.588 39.9769C131.429 40.0933 131.299 40.2362 131.199 40.4055V43.9613C131.199 44.3635 131.211 44.6651 131.237 44.8662C131.262 45.0672 131.295 45.1995 131.337 45.263C131.379 45.3265 131.421 45.3583 131.463 45.3583H132.078C132.112 45.3583 132.137 45.39 132.153 45.4535C132.17 45.517 132.178 45.5752 132.178 45.6281C132.178 45.6705 132.17 45.7181 132.153 45.771C132.145 45.8133 132.128 45.8345 132.103 45.8345C131.877 45.8345 131.693 45.8345 131.551 45.8345C131.417 45.8239 131.291 45.8186 131.174 45.8186C131.057 45.8186 130.91 45.8186 130.734 45.8186C130.374 45.8186 130.102 45.8239 129.918 45.8345C129.734 45.8557 129.52 45.8662 129.278 45.8662C129.253 45.8662 129.232 45.8398 129.215 45.7869C129.198 45.7234 129.19 45.6705 129.19 45.6281C129.19 45.5752 129.194 45.5223 129.202 45.4694C129.219 45.4165 129.236 45.39 129.252 45.39H129.981C130.081 45.39 130.132 45.3001 130.132 45.1202V41.3897C130.132 40.9347 130.115 40.6013 130.081 40.3897C130.048 40.1674 130.002 40.0245 129.943 39.961C129.893 39.887 129.839 39.8499 129.78 39.8499H129.529C129.504 39.8499 129.479 39.8235 129.453 39.7706C129.437 39.7071 129.428 39.6489 129.428 39.5959C129.428 39.5642 129.432 39.5219 129.441 39.4689C129.449 39.4054 129.47 39.3737 129.504 39.3737C129.696 39.3737 129.876 39.3208 130.044 39.215C130.211 39.0986 130.358 38.9663 130.483 38.8181C130.617 38.6594 130.73 38.5271 130.822 38.4212C130.914 38.3048 130.977 38.2466 131.011 38.2466C131.128 38.2466 131.186 38.3101 131.186 38.4371C131.186 38.7334 131.182 38.9821 131.174 39.1832C131.165 39.3737 131.161 39.6012 131.161 39.8658H131.186Z" fill="#686868"/>
<path d="M149.885 41.866C149.45 41.9083 148.927 41.9242 148.315 41.9136C147.704 41.903 146.997 41.9294 146.193 41.9929C146.193 42.4903 146.264 42.9136 146.407 43.2629C146.549 43.6015 146.733 43.8767 146.959 44.0883C147.185 44.3 147.428 44.4534 147.688 44.5487C147.956 44.6439 148.211 44.6916 148.454 44.6916C148.797 44.6916 149.073 44.6492 149.282 44.5646C149.5 44.4799 149.668 44.3847 149.785 44.2788C149.91 44.173 150.007 44.0778 150.074 43.9931C150.141 43.9084 150.203 43.8661 150.262 43.8661C150.354 43.8661 150.4 43.9296 150.4 44.0566C150.4 44.1201 150.358 44.2577 150.274 44.4693C150.199 44.681 150.074 44.9085 149.898 45.1519C149.73 45.3953 149.5 45.607 149.207 45.7869C148.914 45.9562 148.554 46.0409 148.127 46.0409C147.625 46.0409 147.177 45.8768 146.783 45.5488C146.39 45.2101 146.08 44.7762 145.854 44.2471C145.628 43.7179 145.515 43.1623 145.515 42.5803C145.515 41.9771 145.599 41.4373 145.766 40.9611C145.942 40.4743 146.168 40.0669 146.444 39.7388C146.729 39.4002 147.039 39.1462 147.374 38.9768C147.708 38.7969 148.043 38.707 148.378 38.707C148.738 38.707 149.061 38.8181 149.345 39.0403C149.638 39.2626 149.873 39.5748 150.048 39.9769C150.224 40.3685 150.312 40.8394 150.312 41.3897C150.312 41.559 150.283 41.6755 150.224 41.739C150.166 41.8025 150.053 41.8448 149.885 41.866ZM148.039 39.5642C147.788 39.5642 147.533 39.6383 147.273 39.7864C147.022 39.924 146.8 40.1357 146.608 40.4214C146.423 40.7071 146.298 41.067 146.231 41.5008C146.524 41.4585 146.838 41.4215 147.173 41.3897C147.508 41.358 147.826 41.3262 148.127 41.2945C148.428 41.2627 148.663 41.231 148.83 41.1992C148.981 41.1781 149.086 41.1463 149.144 41.104C149.211 41.0617 149.245 40.9929 149.245 40.8976C149.245 40.5378 149.127 40.2256 148.893 39.961C148.667 39.6965 148.382 39.5642 148.039 39.5642Z" fill="#686868"/>
</svg>
