<svg width="99" height="12" viewBox="0 0 99 12" fill="none" xmlns="http://www.w3.org/2000/svg">
<path d="M0.666667 6C0.666667 8.94552 3.05448 11.3333 6 11.3333C8.94552 11.3333 11.3333 8.94552 11.3333 6C11.3333 3.05448 8.94552 0.666667 6 0.666667C3.05448 0.666667 0.666667 3.05448 0.666667 6ZM6 7H7.9375V5H6V7ZM11.8125 7H15.6875V5H11.8125V7ZM19.5625 7H23.4375V5H19.5625V7ZM27.3125 7H31.1875V5H27.3125V7ZM35.0625 7H38.9375V5H35.0625V7ZM42.8125 7H46.6875V5H42.8125V7ZM50.5625 7H54.4375V5H50.5625V7ZM58.3125 7H62.1875V5H58.3125V7ZM66.0625 7H69.9375V5H66.0625V7ZM73.8125 7H77.6875V5H73.8125V7ZM81.5625 7H85.4375V5H81.5625V7ZM89.3125 7H93.1875V5H89.3125V7ZM97.0625 7H99V5H97.0625V7Z" fill="white"/>
</svg>
